<?xml version="1.0" encoding="utf-8"?>
<!-- Generator: Adobe Illustrator 28.2.0, SVG Export Plug-In . SVG Version: 6.00 Build 0)  -->
<svg version="1.1" id="Layer_1" xmlns="http://www.w3.org/2000/svg" xmlns:xlink="http://www.w3.org/1999/xlink" x="0px" y="0px"
	 viewBox="0 0 850.39 850.39" style="enable-background:new 0 0 850.39 850.39;" xml:space="preserve">
<style type="text/css">
	.st0{fill:none;}
	.st1{fill:#EEB80D;}
	.st2{fill:#FFFFFF;}
	.st3{fill:#CBE8F3;}
	.st4{clip-path:url(#SVGID_00000150783283900938506590000002030808369260998590_);}
	.st5{fill:#1E9DD4;}
	.st6{fill:#E32024;}
	.st7{fill:#E02224;}
	.st8{fill:#FCDC15;}
	.st9{fill:url(#SVGID_00000134947134456553109060000010511858521705304725_);}
	.st10{fill:#E22124;}
	.st11{fill:#1F9AD5;}
	.st12{fill:#E72428;}
	.st13{fill:#0E0D08;}
	.st14{fill:#FDFDFC;}
	.st15{fill:#239ED7;}
	.st16{fill:none;stroke:#000000;stroke-width:15;stroke-miterlimit:10;}
	.st17{fill:url(#SVGID_00000168795123130966207730000008364657041467696790_);}
	.st18{clip-path:url(#SVGID_00000093165374245839147060000014559474623961801648_);}
	.st19{fill:url(#SVGID_00000054968334026793072440000012446854108421737400_);}
	.st20{fill:url(#SVGID_00000156553932879176873570000017231225359245458110_);}
</style>
<pattern  x="-725.03" y="494.65" width="22.68" height="22.68" patternUnits="userSpaceOnUse" id="New_Pattern_2" viewBox="0 -22.68 22.68 22.68" style="overflow:visible;">
	<g>
		<rect y="-22.68" class="st0" width="22.68" height="22.68"/>
		<circle class="st1" cx="11.34" cy="-11.34" r="5.5"/>
	</g>
</pattern>
<rect class="st2" width="850.39" height="850.39"/>
<g>
	<path d="M134.23,732.95c-6.58,1.12-14.41,1.68-20.99-0.14c2.24-10.21-15.95-13.99-17.49-3.5c-0.42,1.26-0.14,2.52,0,3.78
		c1.54,4.48,5.18,5.46,9.09,6.02c9.93,1.12,18.75,6.72,24.21,14.69c6.58,8.39,6.72,20.43,2.24,30.08
		c-4.48,11.47-15.53,16.51-27,16.09c-16.37-0.42-34.14-10.91-33.02-28.68v-0.42v-0.42c6.58-0.98,15.11,0,21.41-0.14
		c0.7,11.89,21.13,12.17,18.89-0.84c-1.12-8.96-12.17-10.21-20.01-11.75c-3.78-0.7-6.86-2.52-9.51-4.76
		c-17.21-16.37-8.67-41.84,9.24-49.25c9.09-3.78,22.11-2.52,31.06,1.54c8.96,4.62,14.69,13.71,12.03,27.71H134.23z"/>
	<path d="M178.02,734.77c7.7-5.6,20.43-7,28.12-0.42c5.88,5.32,1.82,45.33,2.94,64.64c-6.58,0.98-10.91,0.56-17.49,0.56
		c-0.7-8.54,0.14-22.39-0.56-32.46c-0.42-4.62-0.56-11.33-3.5-13.57c-0.14-0.14-0.42-0.14-0.56-0.28
		c-3.08-1.54-12.59-2.52-13.29,7.56c-0.7,12.87,1.4,25.19-0.14,37.5v0.56c-6.44,1.82-8.4,0.14-17.35,0.84
		c0-22.95-0.84-45.48-0.14-70.1c4.48,0.42,5.32,0.42,9.79,0c1.54,0,8.4-1.4,8.4-0.14c0.42,3.22,0.14,4.76,0.28,7.42
		C175.5,736.31,177.04,735.47,178.02,734.77z"/>
	<path d="M286.6,732.95v1.4c-0.56,20.15,0.98,39.32-0.28,59.33c0,2.38,0.42,5.32-1.82,5.74h-1.68c-2.94,0-6.16-0.42-9.09-0.42
		c-2.1,0-3.92,0.42-6.02,0.42c-1.26-0.42-1.68-1.54-1.68-3.08c0-2.1,0.56-3.08,0.56-4.9c-4.48,4.48-11.89,8.12-18.47,8.12
		c-14.41,0-20.57-22.53-20.57-37.5c0-18.61,10.35-31.9,23.51-32.32c6.72,0,11.61,0,14.27,6.44c-0.14-2.94,0.56-4.9,0.56-7.14
		c0-0.42,5.6-0.14,6.72-0.14c3.22,0.14,7.7,0.28,13.71,0.7C286.46,730.72,286.6,731.83,286.6,732.95z M244.77,764.86
		c0,8.4,4.62,15.11,12.45,15.11c9.24,0,8.68-6.44,8.68-16.93c0-13.01,0.42-14.55-7.28-14.55c-7.7,0-12.03,4.34-13.01,8.96
		C244.91,759.82,244.77,762.48,244.77,764.86z"/>
	<path d="M326.62,827.68c0,0.42-11.47,1.26-17.63,0.14v-9.23c0-31.06-1.54-62.27-0.84-89.13c5.74,0,13.29-0.56,18.89,0.14
		c0.14,0.14,0.14,0.56,0.14,0.98c0,1.82,0.14,2.52,0.14,4.62c0.42,0.98,0.84,1.68,1.4,0.56c2.8-5.6,7.84-6.72,13.01-6.02
		c21.41,1.54,22.81,20.71,23.51,39.46c0,13.01-3.08,25.47-11.33,28.4c-10.07,3.78-26.17,1.54-26.87-1.82
		c0.56,26.31,0.14,19.31-0.42,30.36V827.68z M349.29,765.28c0-9.38-4.76-18.33-12.73-18.33c-9.51,0-10.07,8.54-10.07,20.29
		c0,14.41,0.56,16.09,8.54,16.09c7.7,0,12.31-3.36,13.29-9.93C349.29,770.73,349.29,767.93,349.29,765.28z"/>
	<path d="M441.64,778.99c-4.48,26.45-35.26,20.57-55.55,20.01c-1.12,0-2.1,0.14-3.08-0.28c-1.12-32.32,0.14-63.8-0.42-96.27
		l0.14-0.14c22.39-6.16,55.55-5.46,55.55,25.89c0,7.84-3.08,15.53-6.86,21.83c-0.7,1.26-0.28,1.82,0.7,2.94
		C438,760.24,443.88,766.96,441.64,778.99z M419.39,765.84c-1.12-2.24-3.64-4.2-6.02-4.76c-3.5-0.98-7.42-0.7-10.91-1.12
		c-1.4,5.46-2.66,15.11,0.42,19.59l0.28,0.14c5.18,0,12.03,0.98,15.81-3.5C421.07,773.39,420.65,769.05,419.39,765.84z
		 M420.09,727.92c-1.54-2.94-3.92-4.48-6.86-5.18c-3.78-0.7-8.4-1.12-11.19,0.42c0.42,4.34-1.12,10.77,0.56,17.35
		c5.6,0.7,13.29,1.4,16.23-4.2C420.09,734.07,421.63,730.85,420.09,727.92z"/>
	<path d="M494.67,793.82c-7.7,5.6-20.43,7-28.12,0.42c-5.88-5.32-1.82-45.33-2.94-64.64c6.58-0.98,10.91-0.56,17.49-0.56
		c0.7,8.54-0.14,22.39,0.56,32.46c0.42,4.62,0.56,11.33,3.5,13.57c0.14,0.14,0.42,0.14,0.56,0.28c3.08,1.54,12.59,2.52,13.29-7.56
		c0.7-12.73-1.68-25.33,0.14-37.5v-0.56c6.44-1.82,8.4-0.14,17.35-0.84c0,22.95,0.84,45.47,0.14,70.1c-4.48-0.42-5.32-0.42-9.79,0
		c-1.54,0-8.4,1.4-8.4,0.14c-0.42-3.22-0.14-4.76-0.28-7.42C497.19,792.28,495.65,793.12,494.67,793.82z"/>
	<path d="M556.37,702.45c0.56,11.05,0.98,4.06,0.42,30.36c0.7-3.36,16.79-5.6,26.87-1.82c8.26,2.94,11.33,15.39,11.33,28.4
		c-0.7,18.75-2.1,37.92-23.51,39.46c-5.18,0.7-10.21-0.42-13.01-6.02c-0.56-1.12-0.98-0.42-1.4,0.56c0,2.1-0.14,2.8-0.14,4.62
		c0,0.42,0,0.84-0.14,0.98c-5.6,0.7-13.15,0.14-18.89,0.14c-0.7-26.87,0.84-58.07,0.84-89.13v-9.24c6.16-1.12,17.63-0.28,17.63,0.14
		V702.45z M564.77,745.27c-7.98,0-8.54,1.68-8.54,16.09c0,11.75,0.56,20.29,10.07,20.29c7.98,0,12.73-8.96,12.73-18.33
		c0-2.66,0-5.46-0.98-8.12C577.08,748.63,572.47,745.27,564.77,745.27z"/>
	<path d="M631.51,702.45c0.56,11.05,0.98,4.06,0.42,30.36c0.7-3.36,16.79-5.6,26.87-1.82c8.26,2.94,11.33,15.39,11.33,28.4
		c-0.7,18.75-2.1,37.92-23.51,39.46c-5.18,0.7-10.21-0.42-13.01-6.02c-0.56-1.12-0.98-0.42-1.4,0.56c0,2.1-0.14,2.8-0.14,4.62
		c0,0.42,0,0.84-0.14,0.98c-5.6,0.7-13.15,0.14-18.89,0.14c-0.7-26.87,0.84-58.07,0.84-89.13v-9.24c6.16-1.12,17.63-0.28,17.63,0.14
		V702.45z M639.91,745.27c-7.98,0-8.54,1.68-8.54,16.09c0,11.75,0.56,20.29,10.07,20.29c7.98,0,12.73-8.96,12.73-18.33
		c0-2.66,0-5.46-0.98-8.12C652.22,748.63,647.6,745.27,639.91,745.27z"/>
	<path d="M708.19,697.97c0,22.95-1.26,77.94-0.14,100.46c-1.82,2.1-17.21,0.14-19.73,0.84c2.66-33.72-2.52-67.86,0.84-101.72
		L708.19,697.97z"/>
	<path d="M745.97,766.67c0.14,5.6,0,8.68,2.1,12.03c4.48,8.67,18.19,8.81,17.49-6.3c3.78,0.42,13.57-0.84,17.63,0.28
		c-0.7,9.51-1.26,19.59-3.92,21.83c-6.3,8.96-21.55,6.16-32.18,6.16c-2.66-0.42-5.04-1.26-7.28-2.52
		c-9.93-7-13.43-23.51-12.73-38.62c0.56-6.86,0.84-13.29,3.08-19.45c4.9-11.05,21.27-15.11,34.56-11.75
		c17.35,2.94,19.87,19.03,18.75,34.7c-3.92,1.12-31.62,2.24-37.5,1.12V766.67z M758,741.07c-8.82,0-10.91,4.06-11.61,9.09
		c-0.7,3.92-0.7,3.08,13.15,3.08c9.66,0,8.82,1.12,8.82-1.68c0-3.78-2.1-7.42-5.46-9.09C761.36,741.49,760.1,741.07,758,741.07z"/>
</g>
<g>
	<path class="st3" d="M630.89,668.11H219.51c-56.23,0-101.81-45.58-101.81-101.81V154.93c0-56.23,45.58-101.81,101.81-101.81h411.38
		c56.23,0,101.81,45.58,101.81,101.81V566.3C732.69,622.53,687.11,668.11,630.89,668.11z"/>
	<g>
		<defs>
			<path id="SVGID_00000106828229143426119350000001165252254406565256_" d="M630.89,668.11H219.51
				c-56.23,0-101.81-45.58-101.81-101.81V154.93c0-56.23,45.58-101.81,101.81-101.81h411.38c56.23,0,101.81,45.58,101.81,101.81
				V566.3C732.69,622.53,687.11,668.11,630.89,668.11z"/>
		</defs>
		<clipPath id="SVGID_00000018234378017822835050000001063365737912665518_">
			<use xlink:href="#SVGID_00000106828229143426119350000001165252254406565256_"  style="overflow:visible;"/>
		</clipPath>
		<g style="clip-path:url(#SVGID_00000018234378017822835050000001063365737912665518_);">
			<path class="st5" d="M451.72,568.59c0,0,15.82,3.1,16.2,3.34c0.37,0.24,58.39,1.46,58.39,1.46l7.88,8.73
				c0,0-24.21,25.83-28.96,30.93c-4.75,5.11-22.55,22.13-22.55,22.13l-17.27-7.04l-7.06-1.4l-5.67,0.5l-13.45,6.5l-2.1-0.82
				l-3.62-5.05l-4.04-7.95l16.73-25.2l8.29-12.38l5.86-4.09l-6.52-6.08L451.72,568.59z"/>
			<path class="st6" d="M693.43,390.31l36.24-1.15l4.83,2.81c0,0-0.42,46.43-1.87,45.55c-1.45-0.88-20.68,2.74-20.68,2.74
				s-12.82-1.41-13.93-4.73c-1.11-3.32-4.59-44.22-4.59-44.22"/>
			<polygon class="st7" points="472.59,640.06 499.25,656.89 503.06,674.65 480.06,675.48 			"/>
			<path class="st2" d="M429.27,243.6c-3.68,0-5.42,3.02-5.22,5.87c-7.48,6.02-13.66,14.15-20.13,21.17
				c-4.73,5.13,2.93,12.82,7.67,7.67c3.23-3.5,6.46-7.01,9.69-10.51c2.95-3.2,5.78-7.1,9.24-9.75c1.73-1.33,2.82-3.23,2.64-5.25
				C435.83,249.76,434.54,243.6,429.27,243.6z"/>
			<path class="st2" d="M429.25,161.71c-0.6-3.54-2.51-6.32-4.82-8.99c-1.92-2.22-5.7-1.97-7.67,0c-2.2,2.2-1.92,5.45,0,7.67
				c0.91,1.05,1.61,2.05,1.9,3.43c0.16,0.77,0.21,1.55,0.42,2.31c0.02,0.08,0.04,0.14,0.07,0.21c0,0,0,0,0,0.01
				c-3.82,5.86,5.56,11.31,9.37,5.48c1.07-1.64,1.8-3.47,1.75-5.46C430.22,164.77,429.51,163.25,429.25,161.71z"/>
			<path class="st8" d="M445.57,466.54c3.96-6.99,10.24-11.52,17.29-13.56v-346c-3.43,3.7-8.37,6.08-13.42,6.08
				c-0.02,0-0.05,0-0.07,0c-3.06,2.21-6.77,3.54-10.54,3.54c-5.74,0-10.63-2.66-13.87-6.75c-8.31-1.64-14.17-9.08-14.56-17.69
				c-0.22-4.88,1.94-9.39,5.33-12.69c0.93-2.32,2.39-4.43,4.2-6.19c-0.01-0.12-0.02-0.24-0.02-0.36c-0.15-3.39,0.85-6.61,2.61-9.36
				c-0.34-1.33-0.56-2.71-0.62-4.12c-0.1-2.28,0.32-4.47,1.14-6.51h-20.47c-1.05,0-2.06-0.09-3.05-0.26
				c-0.47,1.46-1.14,2.84-1.98,4.12c-0.54,5.34-3.87,10.04-8.35,12.91v182.54c2.4-3.23,5.88-5.7,9.73-6.88
				c0.41-1.46,1-2.86,1.79-4.22c0.94-1.22,1.88-2.43,2.82-3.65c2.25-2.24,4.9-3.78,7.96-4.64l4.79-0.64
				c2.48-0.09,4.8,0.42,6.95,1.55c2.24,0.73,4.17,1.97,5.8,3.73c1.76,1.63,3,3.57,3.73,5.8c1.13,2.15,1.65,4.47,1.55,6.95v0.22
				c-0.01,3.26-0.83,6.29-2.46,9.1c-0.94,1.22-1.88,2.43-2.82,3.65c-2.2,2.19-4.79,3.71-7.76,4.58
				c-2.23,7.33-9.67,12.87-17.37,12.87c-6.26,0-11.51-3.17-14.71-7.9v395.12c0.56-0.03,1.11-0.05,1.66-0.05h39.66
				c0.55-6.9,4.21-14.23,8.89-18.91c1.82-1.82,3.92-3.4,6.21-4.71c-0.34-0.18-0.68-0.35-1.02-0.55c-2.06-1.59-4.12-3.18-6.18-4.78
				c-3.79-3.81-6.4-8.3-7.85-13.48c-0.36-2.71-0.73-5.41-1.09-8.12c-0.16-4.21,0.72-8.13,2.63-11.77c1.23-3.79,3.34-7.06,6.32-9.83
				c0.52-0.56,1.06-1.08,1.62-1.58c3.61-3.39,8.24-5.93,13.13-7.27c-2.82-4.65-4.53-10.08-4.79-15.82
				c-0.11-2.51,0.26-5.15,0.98-7.74c-6.3-5.29-10.44-13.13-11.29-21.81c-0.54-1.05-1.03-2.14-1.45-3.25
				c-7.7-5.59-12.66-14.76-13.11-24.91c-0.29-6.39,2.49-13.54,6.52-18.8C434.06,484.56,440.24,475.96,445.57,466.54z M412.3,184.48
				c-10.11,0-17.6-8.26-18.04-18.04c-0.44-9.74,8.6-18.04,18.04-18.04c10.11,0,17.6,8.26,18.04,18.04
				C430.77,176.18,421.74,184.48,412.3,184.48z"/>
			<g>
				<path class="st8" d="M431.54,466.16v-76.04h-261.3c-3.64,9.28-9.22,17.43-16.76,24.43c-7.93,8.54-17.33,14.58-28.19,18.11
					c-1.66,0.87-3.34,1.66-5.03,2.38c0.17,1.27,0.34,2.53,0.51,3.8c0.14,3.82-0.01,7.56-0.46,11.21c0.58-0.03,1.17-0.05,1.75-0.05
					c11.35,0,21.43,4.75,29.63,12.27c8.23,7.55,11.79,18.79,12.27,29.63c0.47,10.44-5,22.36-12.27,29.63
					c-7.49,7.49-18.56,12.13-29.16,12.26c4.85,5.46,7.84,12.68,8.19,20.47c0.25,5.49-1.77,11.53-4.89,16.47
					c0.31,1.57,0.61,3.14,0.91,4.71c13.56,1.94,23.59,12.89,25.79,26.25c0.8,2.65,1.29,5.43,1.42,8.29c0.12,2.66-0.3,5.46-1.11,8.2
					c7.17-5.22,16.24-8.31,24.96-8.31c8.41,0,16.12,2.61,22.88,7.02c14.9,2.12,25.55,15.11,26.23,30.23
					c0.33,7.45-3.49,15.93-8.62,21.25c3.49-0.94,7.06-1.46,10.58-1.46c3.46,0,6.8,0.45,10,1.29c0.71-0.91,1.45-1.77,2.23-2.54
					c5.54-5.54,13.77-8.95,21.6-8.95c0.77,0,1.52,0.04,2.27,0.09c1.76-0.71,3.57-1.32,5.4-1.8c1.5-5.14,4.4-10.08,7.88-13.56
					c5.54-5.54,13.77-8.95,21.6-8.95c0.46,0,0.91,0.01,1.36,0.03c0.43-0.02,0.86-0.03,1.29-0.03c17.12,0,29.8,13.99,30.54,30.54
					c0.07,1.46-0.04,2.97-0.28,4.48c2.12-0.48,4.22-0.69,6.21-0.53c4.94,0.39,9.87,0.84,14.81,1.33h52.31
					c1.29-0.18,2.58-0.31,3.87-0.36c1.94-5.98,5.16-11.67,9.01-16.04c-0.07-4.42,0.69-8.62,2.24-12.59
					c-7.04-5.65-11.52-14.41-11.95-24.04c-0.34-7.61,3.65-16.3,8.95-21.6c0.33-0.33,0.68-0.66,1.03-0.97
					c0.32-0.35,0.64-0.69,0.96-1.02c3.12-3.12,7.1-5.57,11.38-7.1v-11.96c-7.8-7.84-12.68-18.83-13.2-30.79c0-0.03,0-0.06,0-0.1
					c-9.2-5.29-15.24-15.36-15.74-26.63c-0.17-3.8,0.74-7.88,2.36-11.67c-0.57-2.23-0.93-4.54-1.03-6.91
					c-0.34-7.61,3.65-16.3,8.95-21.6C417.72,470.1,424.64,466.88,431.54,466.16z"/>
				
					<pattern  id="SVGID_00000049187940441515831980000010825145905143300749_" xlink:href="#New_Pattern_2" patternTransform="matrix(1 0 0 1 204.0945 0)">
				</pattern>
				<path style="fill:url(#SVGID_00000049187940441515831980000010825145905143300749_);" d="M431.54,466.16v-76.04h-261.3
					c-3.64,9.28-9.22,17.43-16.76,24.43c-7.93,8.54-17.33,14.58-28.19,18.11c-1.66,0.87-3.34,1.66-5.03,2.38
					c0.17,1.27,0.34,2.53,0.51,3.8c0.14,3.82-0.01,7.56-0.46,11.21c0.58-0.03,1.17-0.05,1.75-0.05c11.35,0,21.43,4.75,29.63,12.27
					c8.23,7.55,11.79,18.79,12.27,29.63c0.47,10.44-5,22.36-12.27,29.63c-7.49,7.49-18.56,12.13-29.16,12.26
					c4.85,5.46,7.84,12.68,8.19,20.47c0.25,5.49-1.77,11.53-4.89,16.47c0.31,1.57,0.61,3.14,0.91,4.71
					c13.56,1.94,23.59,12.89,25.79,26.25c0.8,2.65,1.29,5.43,1.42,8.29c0.12,2.66-0.3,5.46-1.11,8.2
					c7.17-5.22,16.24-8.31,24.96-8.31c8.41,0,16.12,2.61,22.88,7.02c14.9,2.12,25.55,15.11,26.23,30.23
					c0.33,7.45-3.49,15.93-8.62,21.25c3.49-0.94,7.06-1.46,10.58-1.46c3.46,0,6.8,0.45,10,1.29c0.71-0.91,1.45-1.77,2.23-2.54
					c5.54-5.54,13.77-8.95,21.6-8.95c0.77,0,1.52,0.04,2.27,0.09c1.76-0.71,3.57-1.32,5.4-1.8c1.5-5.14,4.4-10.08,7.88-13.56
					c5.54-5.54,13.77-8.95,21.6-8.95c0.46,0,0.91,0.01,1.36,0.03c0.43-0.02,0.86-0.03,1.29-0.03c17.12,0,29.8,13.99,30.54,30.54
					c0.07,1.46-0.04,2.97-0.28,4.48c2.12-0.48,4.22-0.69,6.21-0.53c4.94,0.39,9.87,0.84,14.81,1.33h52.31
					c1.29-0.18,2.58-0.31,3.87-0.36c1.94-5.98,5.16-11.67,9.01-16.04c-0.07-4.42,0.69-8.62,2.24-12.59
					c-7.04-5.65-11.52-14.41-11.95-24.04c-0.34-7.61,3.65-16.3,8.95-21.6c0.33-0.33,0.68-0.66,1.03-0.97
					c0.32-0.35,0.64-0.69,0.96-1.02c3.12-3.12,7.1-5.57,11.38-7.1v-11.96c-7.8-7.84-12.68-18.83-13.2-30.79c0-0.03,0-0.06,0-0.1
					c-9.2-5.29-15.24-15.36-15.74-26.63c-0.17-3.8,0.74-7.88,2.36-11.67c-0.57-2.23-0.93-4.54-1.03-6.91
					c-0.34-7.61,3.65-16.3,8.95-21.6C417.72,470.1,424.64,466.88,431.54,466.16z"/>
			</g>
			<path d="M234.5,611.53c-2.79-4.84-6.7-9.75-10.82-13.49c-9.01-8.2-21.16-13.21-32.42-17.45c-18.94-7.13-39.21-10.61-59.32-9.14
				c11.61-13.32,20.68-28.75,26.81-45.37c3.78-10.24,6.28-20.86,7.66-31.68c1.39-10.94,2.85-23.87-2.77-33.87
				c-2.96-5.28-11.08-0.54-8.12,4.75c2.62,4.67,2.65,10,2.54,15.21c-0.11,5-0.5,10.01-1.2,14.96c-1.42,9.97-4.02,19.8-7.58,29.21
				c-7.15,18.86-18.62,35.94-33.24,49.8c-3.64,3.45,0.23,8.69,4.57,7.86c20.13-3.84,40.86-1.57,60.29,4.6
				c9.67,3.07,19.22,7.02,28.03,12.08c4.19,2.41,7.98,5.2,11.19,8.83c1.7,1.92,3.2,4,4.67,6.1c0.63,0.89,1.36,1.78,1.83,2.78
				c0.38,0.81,0.41,1.22,0.44,1.32c-1.29,1.51-1.76,3.5-0.65,5.45c1.13,1.99,4.42,3.23,6.43,1.69
				C237.51,621.56,237.27,616.35,234.5,611.53z"/>
			<g>
				<g>
					<path d="M163.66,668.73c-10.99-37.19-25.35-82.85-43.09-136.97c51.23-41.07,87.51-46.66,108.83-16.75
						c5.94,13.89,5.29,25.66-1.95,35.3c8.56-0.28,17.75,4.93,27.58,15.63C278.72,604.95,248.26,639.21,163.66,668.73z
						 M196.88,597.54c1.18,3.66,1.65,5.1,1.41,4.33c5.77-2.77,8.03-5.58,6.76-8.44C202.96,593.06,200.23,594.43,196.88,597.54z"/>
					<path d="M313.72,489.83c10.97,13.4,17.83,30.84,20.59,52.31c3.11,20.22-0.37,38.8-10.46,55.74s-23.37,26.4-39.87,28.36
						c-17.08,2.06-30.83-4.07-41.25-18.39c-10.42-14.32-16.65-31.46-18.71-51.44c-2.1-20.19,1.2-38.67,9.91-55.43
						c8.71-16.77,21.56-26.14,38.55-28.12C289,470.77,302.75,476.43,313.72,489.83z M280.36,528.28c-5.68,2.46-7.8,11-6.35,25.62
						c2.37,16.34,4.87,24.26,7.47,23.79c3.57-1.11,6.01-4.19,7.32-9.24c1.42-6.2,0.77-14.3-1.93-24.32
						C283.61,533.18,281.44,527.9,280.36,528.28z"/>
					<path d="M397.52,469.09c10.97,13.4,17.83,30.84,20.59,52.31c3.11,20.22-0.38,38.8-10.46,55.74
						c-10.09,16.94-23.37,26.4-39.87,28.37c-17.08,2.06-30.83-4.07-41.25-18.39c-10.42-14.31-16.65-31.46-18.71-51.44
						c-2.1-20.19,1.2-38.67,9.91-55.44c8.71-16.77,21.56-26.14,38.55-28.12C372.8,450.03,386.54,455.69,397.52,469.09z
						 M364.16,507.53c-5.68,2.46-7.8,11-6.35,25.62c2.38,16.34,4.87,24.26,7.48,23.79c3.57-1.11,6-4.19,7.31-9.24
						c1.42-6.2,0.77-14.3-1.93-24.32C367.4,512.44,365.23,507.16,364.16,507.53z"/>
				</g>
				<g>
					<path class="st10" d="M170.09,657.61c-9.32-31.59-22.28-72.7-38.88-123.31c43.57-34.94,73.33-39.75,89.29-14.42
						c5.11,10.09,3.35,22.3-5.29,36.63c12.41-1.57,23.3,3.39,32.66,14.88C265.64,600.95,239.72,629.69,170.09,657.61z
						 M172.49,544.88c3.16,9.63,5.87,17.87,8.12,24.71c7.33-5.93,10.32-13.08,8.97-21.43C188,538.81,182.3,537.72,172.49,544.88z
						 M188.46,593.86c2.42,7.53,4.44,13.88,6.05,19.04c16.57-7.94,22.38-16.42,17.42-25.44
						C209.76,582.77,201.94,584.9,188.46,593.86z"/>
					<path class="st10" d="M307.95,495.85c9.53,11.64,15.58,27.47,18.14,47.49c2.81,18.34-0.23,35-9.13,49.98
						c-8.9,14.98-20.27,23.29-34.12,24.94c-13.95,1.67-25.46-3.72-34.52-16.17c-9.07-12.45-14.55-27.93-16.46-46.44
						c-1.92-18.56,0.95-35.24,8.62-50.02c7.67-14.78,18.59-23.01,32.76-24.68C286.84,479.24,298.41,484.21,307.95,495.85z
						 M277.09,520.82c-9.39,4.11-13.17,15.48-11.34,34.12c3.21,21.97,9.03,32.2,17.45,30.67c6.77-2.12,11.19-7.2,13.27-15.22
						c1.75-7.56,1.08-17.02-2.02-28.39C289.51,525.45,283.73,518.4,277.09,520.82z"/>
					<path class="st10" d="M391.74,475.11c9.53,11.64,15.58,27.47,18.14,47.49c2.81,18.34-0.23,35-9.13,49.98
						s-20.27,23.29-34.12,24.94c-13.95,1.67-25.46-3.72-34.52-16.17c-9.07-12.45-14.55-27.93-16.47-46.44
						c-1.92-18.56,0.95-35.24,8.62-50.02c7.67-14.79,18.59-23.01,32.76-24.69C370.64,458.5,382.21,463.47,391.74,475.11z
						 M360.89,500.07c-9.39,4.11-13.17,15.48-11.34,34.12c3.21,21.97,9.03,32.2,17.45,30.67c6.77-2.12,11.19-7.2,13.27-15.22
						c1.75-7.56,1.07-17.02-2.02-28.39C373.31,504.71,367.53,497.65,360.89,500.07z"/>
				</g>
			</g>
			<path class="st2" d="M149.29,375.56c-0.28-2.38-1.6-4.34-2.61-6.46c-2.16-4.54-4.42-8.23-7.62-12.1
				c-1.51-1.83-2.75-3.72-3.95-5.76c-0.79-1.35-1.94-3.94-3.6-4.44c-1.49-0.45-3.46,0.94-4.71,1.56c-2.03,1.01-4.06,2.02-6.3,2.45
				c-1.23,0.24-2.6-0.01-3.62-0.72c-0.61,2.57-1.9,4.92-2.89,7.37c-0.15,0.38-0.28,0.76-0.4,1.14c4.71,3.96,3.61,9.33,2.61,14.92
				c-0.67,3.78-0.38,8.05-1.15,11.91c0.38,1.96,0.78,3.92,1.2,5.87c1.32,6.1,2.13,12.62,5.9,17.76c0.5,0.68,0.64,1.55,0.54,2.41
				c0.06,0.01,0.11,0.02,0.17,0.03c2,0.11,3.99,0.21,5.99,0.29c3.39-0.02,6.95-0.41,9.33-3.11c2.85-3.23,3.43-8.07,4.98-11.96
				c1.84-4.6,4.89-8.74,5.75-13.67C149.31,380.69,149.56,377.93,149.29,375.56z"/>
			<path class="st7" d="M579.14,678.06c-0.75-0.29-1.39-2.64-1.67-3.3c-1.18-2.76-2.27-5.57-3.36-8.38
				c-3.34-8.62-6.53-17.31-9.72-26c-3.45-9.42-6.86-18.86-10.26-28.3c-1.05-2.93-2.04-5.87-3.06-8.81
				c-0.53-1.51-1.06-3.02-1.62-4.52c-0.31-0.82-0.44-1.72-0.82-2.52c-0.37-0.77-0.72-0.72-1.43-0.75c-0.76-0.03-2.21-0.04-2.94,0.2
				c-0.45,0.15-0.81,0.48-1.16,0.8c-5.72,5.37-10.03,11.93-13.52,18.91c-0.71,1.42-1.29,2.86-1.8,4.31
				c-0.79,4.91-1.44,9.83-1.16,14.79c0.02,0.38,0.05,0.77,0.17,1.13c0.01,0.04,0.03,0.08,0.04,0.12c0.17,0.42,0.47,0.76,0.76,1.1
				c8.25,9.35,16.42,18.8,24.62,28.2c4.1,4.71,8.21,9.42,12.31,14.12C564.53,679.18,581.05,678.81,579.14,678.06z"/>
			<polygon class="st5" points="547.2,595.49 566.13,594.14 620.86,668.11 564.55,666.39 			"/>
			<polygon class="st5" points="596.38,603.87 610.11,611.35 654.74,676.47 638.65,673.12 			"/>
			<polygon class="st5" points="637.19,603.87 660.11,637.27 625.56,620.57 680.78,679.18 721.19,675.48 			"/>
			<path class="st2" d="M395.22,539.75c-0.62-1.15-1.24-2.3-1.86-3.46c0.26-1.3-0.09-2.71-1.38-3.91c-0.47-0.44-0.96-0.87-1.44-1.31
				c-3.5-6.49-7-12.97-10.49-19.46c0.96-0.27,1.91-0.55,2.87-0.81c5.83-1.59,3.35-10.66-2.5-9.07c-2.68,0.73-5.34,1.51-8,2.33
				c-0.53,0.06-1.04,0.21-1.51,0.46c-3.7,1.16-7.38,2.4-11.01,3.77c-0.61,0.23-1.2,0.46-1.79,0.7c0,0,0,0,0,0
				c-2.33-0.33-4.61,0.5-5.55,2.71c-2.51,1.51-4.75,3.38-6.65,5.94c-2.11,2.84,0.72,7.27,4.06,7.07c2.41-0.14,4.89-0.29,7.39-0.5
				c5.98,1.74,10.62,8.54,15.03,12.53c5.07,4.58,10.73,8.53,17.52,9.91C393.93,547.48,397.24,543.49,395.22,539.75z"/>
			<polygon class="st5" points="644.71,558.55 747.7,641.52 747.7,583.1 647.93,551.19 			"/>
			<polyline class="st7" points="689.94,540.09 693.43,499.64 663.56,503.67 630.08,536.17 654.54,553.19 733.37,559.52 
				734.68,529.58 			"/>
			<path class="st2" d="M428.02,449.6l-0.04-0.32c-0.21-1.57-0.85-3.06-2.11-3.93c-0.01-0.01-0.01-0.02-0.02-0.03
				c-0.26-0.66-0.53-1.32-0.81-1.97c-0.49-1.11-1.03-2.18-1.71-3.19c-1.44-2.13-3.38-3.77-5.02-5.72c-1.63-1.95-4.96-1.68-6.65,0
				c-1.93,1.93-1.64,4.7,0,6.65c1.89,2.25,3.97,3.95,5.13,6.73c0.04,0.1,0.08,0.19,0.12,0.29c-0.19,0.14-0.37,0.3-0.55,0.46
				c-4.52,4.04,2.15,10.67,6.65,6.65c0.79-0.71,1.84-0.96,2.69-1.56C426.93,452.79,428.24,451.28,428.02,449.6z"/>
			<path class="st2" d="M433.75,342c-3.11-5.19-11.24-0.46-8.12,4.75c0.74,1.23,1.65,2.83,1.81,4.29c0.17,1.58,0.41,0.71-0.4,2.39
				c-1.24,2.6-3.38,4.94-5.29,7.05c-4.06,4.47,2.57,11.14,6.65,6.65c3.08-3.39,6.71-7.48,8.24-11.87
				C438.13,350.99,435.96,345.68,433.75,342z"/>
			<path class="st2" d="M431.33,342.39c-0.01-0.16-0.03-0.42-0.06-0.82c-0.02-0.15-0.04-0.29-0.06-0.39
				c-0.19-0.87-0.34-1.75-0.54-2.63c-0.42-1.8-0.98-3.55-1.53-5.32c-0.08-0.25-0.14-0.44-0.19-0.61c-0.22-0.44-0.48-0.88-0.64-1.2
				c-1.21-2.39-2.6-4.67-4.02-6.94c-3.7-5.9-7.24-11.63-9.73-18.18c-0.13-0.35-0.26-0.7-0.38-1.05c-0.63-0.48-1.25-0.97-1.88-1.45
				c-1.79-1.81-3.04-3.94-3.72-6.39c-0.17-1.28-0.34-2.57-0.52-3.85c-0.08-1.99,0.34-3.85,1.25-5.58c0.58-1.79,1.58-3.35,2.99-4.66
				c0.4-0.43,0.82-0.8,1.26-1.16c2.44-10.12,8.55-19.1,13.09-28.35c0.34-0.69,0.65-1.39,0.98-2.08c0.36-0.98,0.74-1.96,1.04-2.96
				c0.13-0.41,0.54-3.04,0.86-3.71c0.04-0.51,0.08-1.02,0.09-1.53c0.06-1.82,0.01-3.63-0.12-5.45c-0.02-0.29-0.02-0.76-0.04-1.22
				c-0.02-0.09-0.03-0.2-0.06-0.36c-0.02-0.09-0.03-0.19-0.05-0.28c-2.83-1.99-5.04-4.79-6.41-8.03c-1.18-0.39-2.33-0.9-3.44-1.54
				c-1.22-0.94-2.43-1.88-3.65-2.82c-2.24-2.25-3.78-4.9-4.64-7.96c-0.21-1.6-0.43-3.2-0.64-4.79c-0.09-2.38,0.39-4.61,1.43-6.69
				c0.09-0.24,0.18-0.47,0.29-0.71c0.74-2.05,1.93-3.83,3.57-5.36c0.67-0.72,1.4-1.36,2.18-1.91c0.31-0.23,0.63-0.44,0.95-0.65
				c0.63-3.67,2.56-7.01,5.26-9.57c0.27-3.99,0.41-7.95,0.19-11.96c-0.12-2.22-0.35-4.41-0.58-6.62c-0.03-0.18-0.07-0.4-0.11-0.69
				c-0.18-1.14-0.38-2.28-0.59-3.41c-1.63-8.67-4.23-17.06-7.4-25.27c-3.36-2.04-5.96-5.17-7.47-8.88
				c-5.23-2.63-10.11-5.82-14.71-9.42c-1.91-0.23-3.8-0.77-5.53-1.62c-1.11-0.55-2.24-1.07-3.36-1.58c-0.8-0.06-1.62-0.16-2.46-0.27
				c-3.82-0.53-7.23-2.01-10.75-3.55c-1.37-0.6-2.71-1.24-4.06-1.88c-0.41-0.2-1.28-0.43-1.68-0.74c-0.05-0.03-0.09-0.07-0.12-0.1
				c-2.45-1.06-4.54-2.5-6.15-4.26c-1.83-0.93-3.64-1.91-5.39-2.98c-2.71-0.2-5.42-0.36-8.13-0.49c-2.49,4.63-7.63,7.88-12.93,7.89
				c-8.58,0.02-17.14,0.58-25.66,1.61c-0.2,0.02-1.07,0.14-1.67,0.22c-0.75,0.11-1.83,0.27-2.04,0.3c-2.15,0.33-4.3,0.68-6.44,1.07
				c-4.32,0.78-8.62,1.67-12.9,2.68c-8.68,2.05-17.25,4.58-25.61,7.68c-1.97,0.73-4.06,1.38-5.94,2.32
				c3.16-1.59-0.26,0.12-0.75,0.34c-0.86,0.38-1.72,0.77-2.58,1.17c-3.83,1.78-7.58,3.73-11.25,5.84c-1.81,1.04-3.71,1.63-5.62,1.84
				c-0.49,0.31-0.99,0.62-1.48,0.93c-9.13,5.82-18.01,12-26.8,18.31c-2.24,3.3-4.46,6.62-6.58,10.01
				c-7.97,12.74-15.26,25.89-23.36,38.55c-3.77,5.89-7.53,11.8-10.63,18.08c-0.46,0.93-0.86,1.89-1.32,2.81
				c-0.01,0.03-0.02,0.04-0.03,0.06c-0.49,1.37-1.05,2.71-1.57,4.07c-0.93,2.43-1.66,4.91-2.32,7.42
				c-3.17,12.07-5.5,25.2-14.85,34.28c-2.42,2.35-5.37,3.66-8.41,4.02v15.48c1.9,2.07,3.56,4.41,5,7.06
				c3.23,5.95,5.44,12.54,7.1,19.08c1.26,4.93,2.2,9.93,3.23,14.92c1.27,6.15,2.73,12.17,3.32,18.39
				c2.97,7.03,5.84,14.11,8.36,21.31c3.44,9.81,7.04,20.12,6.37,30.56c3.1-0.64,6.39-0.5,9.77,0.19c6.98,1.43,10.59,8.1,10.39,14.57
				c5.25,0.69,10.29,2.86,14.68,6.25c2.91,2.25,5.49,4.7,8.11,7.27c0.97,0.95,1.99,1.84,2.98,2.78c0.6,0.37,1.18,0.75,1.79,1.1
				c5.02,2.82,7.42,8.45,7.01,13.96c1.49,0.69,2.97,1.4,4.44,2.13c5.72,2.85,11.32,5.95,16.92,9.02c4.35,2.38,8.93,4.49,12.95,7.41
				c2.77,2.01,5.4,4.16,7.93,6.44c2.58-0.71,5.21-1.09,7.79-1.06c13.14,0.13,26.26,2.79,38.85,6.4
				c13.85,3.97,22.13,16.36,22.17,29.91c1.75,2.15,3.23,4.55,4.39,7.12h52.94c0.19-2.04,0.77-4.04,1.81-5.81
				c7.95-13.59,16.2-30.78,28.97-41.02c-0.37-0.86-0.7-1.73-0.99-2.61c-1.47-4.51-1.87-9.48-2.46-14.14
				c-0.03-0.25-0.35-1.52-0.21-1.72c-0.01-0.06-0.02-0.12-0.02-0.18c-0.09-0.64-0.17-1.28-0.26-1.92c-0.16-1.22-0.32-2.45-0.44-3.67
				c-0.27-2.72-0.41-5.45-0.4-8.19c0.01-2.12,0.1-4.25,0.27-6.38c-1.65-1.8-2.86-4.02-3.51-6.46c-0.21-0.32-0.43-0.65-0.61-0.99
				c-3.85-2.62-6.34-7.08-6.56-12.03c-0.2-4.47,2.09-8.57,5.51-11.25c0.36-4.68,3.38-8.8,7.42-11.09c1-1.55,2.3-2.91,3.8-4.01
				c0.85-3.31,1.81-6.59,2.76-9.92c0.96-3.36,1.9-6.73,2.71-10.13c0.35-1.46,0.68-2.93,0.98-4.41c0.17-0.84,0.33-1.68,0.48-2.52
				c0.03-0.14,0.09-0.53,0.16-0.92c0.06-0.62,0.26-2.18,0.26-2.17c0.07-0.84,0.13-1.69,0.18-2.54c0.07-1.49,0.09-2.98,0.06-4.46
				C431.5,344.62,431.41,343.51,431.33,342.39z"/>
			<g>
				<polyline class="st11" points="555.4,131.93 599.26,53.12 626.54,53.12 581.77,126.02 555.4,135.43 555.4,132.43 				"/>
				<path class="st12" d="M567.69,53.12l-35.77,68.5c0,0,3.46,4.01,4.61,5.35c1.57,1.82,6.28,7.27,6.28,7.27l64.12-81.12H567.69z"/>
				<path class="st5" d="M641.1,97.51c0.42-0.32,8.67-6.87,18.96-15.06c17.84-14.2,41.82-33.3,41.82-33.3l0,0
					c29.3,4.24,40.33,29,19.5,43.78l-105.17,74.62l13.89-64.4"/>
				<g>
					<polygon class="st5" points="614.52,191.25 732.33,91.9 738.93,118.27 738.93,138.06 625.51,221.14 610.12,214.11 					"/>
					<polygon class="st5" points="670.7,199.98 743.01,149.51 747.7,174.22 682.47,212.5 					"/>
					<polygon class="st5" points="670.82,246.65 735.21,208.34 743.68,240.1 664.11,281.23 664.95,248.53 					"/>
					<polygon class="st5" points="660.59,288.05 732.69,273.68 732.69,302.83 696.64,316.41 732.69,310.42 732.69,341.97 
						647.07,346.76 613.13,349.56 610.12,273.68 					"/>
				</g>
				<g>
					<polygon class="st13" points="682.47,440.25 698.51,440.28 700.71,445.63 687.61,520.47 659.19,519.32 656.17,510.82 					"/>
					<polygon class="st7" points="684.74,444.3 695.01,444.59 683.37,512.98 665.45,512.09 663.56,503.67 					"/>
					
						<ellipse transform="matrix(0.9929 -0.1187 0.1187 0.9929 -58.9216 83.0109)" class="st7" cx="667.44" cy="536.17" rx="14.26" ry="13.84"/>
				</g>
				<line x1="727.77" y1="388.77" x2="693.43" y2="390.31"/>
				<path class="st14" d="M655.94,316.02c-23.87-28.52-54.87-42.78-87.5-52.78c-10.63-0.7-21.09-4.16-31.7-5.4
					c-10.64-1.24-21.38-1.47-32.05-0.7c-21.13,1.52-42.06,6.95-61.65,16.15c-2.41,1.13-4.92,2.52-7.17,4.21
					c-1.22,1.7-2.21,3.56-3.28,5.38c-1.27,2.15-3.35,4.64-4.3,7.12c0,0.08-0.01,0.15-0.01,0.23c-0.16,5.02,2.46,9.52,4.98,13.64
					c7.49,12.27,14.99,24.54,22.48,36.81c2.22,3.63,4.52,7.51,4.77,11.94c0.35,6.14-3.26,11.53-6.68,16.27
					c-8.14,11.3-16.29,22.6-24.43,33.9c-2.02,2.8-4.12,5.83-4.48,9.44c-0.43,4.33,1.74,8.38,3.82,12.03
					c4.62,8.11,9.25,16.22,13.87,24.33c2.04,3.57,4.14,7.35,4.41,11.61c0.36,5.71-2.62,10.9-5.48,15.6
					c-5.46,8.98-10.91,17.96-16.37,26.94c-0.25,0.42-0.51,0.84-0.76,1.26c-0.03,0.16-0.06,0.33-0.11,0.49
					c-0.69,2.12-1.76,4.1-2.16,6.3c-0.13,0.71-0.52,1.3-1.05,1.75c0.23,2.33,0.53,4.66,0.76,6.97c0.63,1.83,1.49,3.61,2.34,5.32
					c8.39,16.99,18.98,35.66,35.77,38.96c3.59,0.71,7.71,0.88,10.05,4.08c0.73,1,1.17,2.15,1.42,3.38c1.33-0.08,2.69,0,4.01,0.23
					c3.53,0.61,6.75,1.87,10.37,2.11c4.68,0.31,9.38,0.2,14.06-0.04c4.65-0.24,9.34-0.52,13.95-1.21c2.07-0.31,3.91-0.47,5.7-0.33
					c21.2-12.56,46.61-16.95,69.73-25.66c25.88-9.75,50.22-25.91,68.69-48.86c18.47-22.95,30.75-52.93,31.92-84.12
					C691.19,377.51,677.63,341.94,655.94,316.02z M475.21,390.98v-0.33h0.1c0.04,0.09,0.08,0.17,0.12,0.26
					C475.35,390.93,475.28,390.95,475.21,390.98z"/>
				<g>
					<path d="M729.93,451.32c-5.38-3.02-10.57-6.51-16.91-10.48c2.08-1.13,2.96-1.9,3.91-2.07c4.21-0.75,8.42-1.58,12.66-1.85
						c2.61-0.17,3.82-0.71,3.78-4.17c-0.15-13.04,0.2-26.08-0.04-39.12c-0.07-3.76-1.32-6.03-4.24-5.96
						c-1.66,0.04-32.75,2.19-34.34,1.54c0.11-0.42,29.77-4.27,29.88-4.68c2.83-0.32,5.66-0.63,8.37-0.93
						c0.23-0.76,0.39-1.45,0.48-2.08c0,0,0,0,0,0c1.27-4.12-0.09-4.18-3.65-5.27c-11.41-3.5-22.77-7.23-34.11-11.02
						c-1.85-0.62-4.31-1.49-5.09-3.14c-2.08-4.42-3.5-9.3-4.94-14.09c-0.22-0.75,0.72-2.12,1.33-3.02c1.01-1.48,2.16-2.86,3.31-4.2
						c10.41-12.06,22.38-21.92,35.01-30.28c6.75-4.47,9.35-9.3,8.26-17.81c-0.33-2.55-0.69-3.78-3.1-3.37
						c-2.86,0.49-5.75,1-8.63,1.06c-7.29,0.17-14.59,0.14-21.89,0.08c-2.77-0.02-4.26-1.32-4.23-5.11
						c0.03-4.44-0.72-8.89-1.04-12.38c2.04-2.62,4.19-4.62,5.49-7.21c3.92-7.82,7.6-15.81,11.22-23.82
						c5.49-12.18,11.04-24.32,16.18-36.7c2.38-5.74,0.98-8.42-3.95-11.03c-6.5-3.44-12.81-7.42-19.45-10.45
						c-2.22-1.01-5.24-0.1-7.81,0.46c-2.91,0.63-5.68,2.11-8.59,2.67c-0.92,0.18-2.76-1.17-3.03-2.21c-1.17-4.59-4.11-5.9-7.64-6.65
						c-2.68-0.57-5.36-1.24-7.96-2.16c-12.68-4.5-14.91-3.52-21.69,9.87c-0.06,0.13-0.14,0.25-0.18,0.38
						c-1.26,3.59-3.5,3.84-6.48,3.1c-3.17-0.78-3.53-3.06-3.47-6.11c0.04-2.19-0.18-4.39-0.33-6.57c-0.43-6.05-2.54-8.93-7.6-10.38
						c-2.51-0.72-5.03-1.37-7.54-2.05c1.32-23.64,8.09-44.89,15.84-65.92c0.66,1.92,0.85,3.83,0.33,5.42
						c-1.86,5.65-0.95,8.25,3.95,10.51c1.01,0.47,2.16,1.02,2.81,1.96c5.5,7.95,15.93,6.37,21.9,1.13
						c3.84-3.37,4.59-10.83-0.12-14.25c-0.71-0.52-1.27-2.87-0.86-3.66c2.06-4.02,2.64-8.02,0.26-11.95
						c-2.36-3.9-5.95-4.58-9.79-4.11c-4.59,0.56-9.19,1.1-14.75,1.76c4.82-10.36,9.15-19.67,13.92-29.92
						c-1.74,1.56-2.81,2.47-3.83,3.44c-24.85,23.7-50.36,46.27-78.92,63.78c-7.21,4.42-14.67,7.7-22.69,9.19
						c-0.68,0.13-4.49-3.32-8.08-6.73c-3.43-3.25-6.66-6.47-6.83-6.52c-5.06-21.48-1.25-43.36-1.15-64.98
						c-7.69-1.59-7.86-1.58-8.58,6.59c-0.79,8.88-1.46,17.79-1.86,26.71c-0.56,12.5,0.09,24.9,3.7,36.84
						c4.42,14.61,15,21.69,27.96,18.45c4.51-1.13,9-2.84,13.23-5c16.26-8.27,30.63-20.16,44.83-32.32
						c6.14-5.25,12.21-10.6,18.16-15.77c-3.97,11.73-8.43,23.34-11.83,35.35c-3.39,12-5.73,24.4-8.62,37.02
						c-5.5,0.92-6.28,1.61-8.73,8.91c-2.36,7.03-4.63,14.11-7.23,22.04c-4.57-24.83-16.69-39.36-37.85-42.26
						c-20.77-2.84-36.01,8.22-47.74,27.04c-15.06-29.13-36.21-34.91-62.06-22.59c-7.57-10.59-15-20.98-22.43-31.36
						c1.09-0.3,1.76,0,2.43,0.28c8.29,3.45,16.57,4.28,25.11,0.86c7.87-3.15,14.79-8.08,21.07-14.27
						c16.7-16.48,30.74-35.83,44.34-55.66c0.18-0.26,0.08-0.78,0.12-1.41c-1.49,0-2.89,0.19-4.23-0.04
						c-4.28-0.74-7.42,1.01-10.03,5.04c-2.87,4.44-5.98,8.7-9.28,12.71c-7.05,8.57-14.4,16.8-21.4,25.42
						c-7.08,8.73-15.31,15.25-25.4,17.91c-4.08,1.08-8.58,1.56-12.67,0.76c-8.16-1.6-14.72-7.26-20.79-13.54
						c-3.13-3.24-3.67-7.97-1.68-12.37c3.27-7.26,6.5-14.55,9.77-21.82c0.72-1.61,1.51-3.17,2.69-5.66
						c3.31,11.2,6.3,21.32,9.3,31.44c0.43,0.04,0.85,0.07,1.28,0.11c7.82-12.08,13.18-25.86,19.52-39.17
						c-0.62-0.28-0.95-0.54-1.28-0.55c-9.82-0.08-19.64-0.23-29.46-0.08c-1.1,0.02-2.62,1.54-3.19,2.82
						c-6.13,13.78-12.16,27.63-18.04,41.57c-0.53,1.27-0.29,3.78,0.48,4.86c14.55,20.57,29.22,41.04,43.93,61.46
						c1.34,1.85,1.57,3.16,0.4,5.31c-5.2,9.52-10.2,19.18-15.32,28.75c-0.82,1.53-1.86,2.89-3.12,4.82
						c-0.02-0.11-0.04-0.21-0.07-0.32c-1.62,3.49-3.76,6.76-4.67,10.52c-0.08,0.33-0.19,0.63-0.33,0.89
						c0.05,1.58,0.76,3.04,1.88,4.68c6.8,9.99,13.44,20.13,20.02,30.32c0.75,1.16,1.44,3.45,0.96,4.41
						c-2.29,4.6-4.82,9.05-7.46,13.76c1.47,2.4,1.5,5.5-1.27,7.94c-2.58,2.28-4.1,5.33-5.83,8.26c-1.49,2.53-4.11,5.53-4.69,8.44
						c-0.53,2.67,0.68,5.82,1.44,8.32c0.88,2.88,1.89,5.71,2.53,8.65c8.7,13.73,16.85,27.95,25.36,41.85
						c1.41,2.3,1.09,3.62-0.29,5.63c-11.62,16.93-23.08,34.01-34.76,50.89c-2.25,3.25-2.54,5.63-0.39,9.17
						c3.47,5.73,6.39,11.9,9.51,17.91c0.93-0.1,1.9,0.25,2.71,1.25c1.97,2.45,2.87,5.27,4.46,7.94c1.54,2.57,3.48,4.77,4.53,7.62
						c2.03,5.51,0.86,11.62-1.26,16.91c-2.32,5.79-5.5,11.27-8.9,16.48c-1.79,2.73-3.82,5.51-4.94,8.6
						c-1.04,2.85-1.5,5.77-3.26,8.31c-0.22,0.32-0.47,0.58-0.73,0.81c0.51,0.85,0.7,1.87,0.38,2.84c-0.69,2.12-1.76,4.1-2.16,6.3
						c-0.13,0.71-0.52,1.3-1.05,1.76c0.38,3.92,1.01,7.85,1.07,11.66c5.25,9.48,10.58,18.91,15.75,28.46
						c4.19,7.74,8.03,15.73,11.99,23.53c-8.38,12.05-16.56,23.94-24.91,35.67c-1.77,2.49-1.75,4.37-0.34,6.98
						c3.48,6.45,6.41,13.33,10.2,19.5c2.64,4.3,2.59,7.43-0.12,11.52c-3.34,5.03-6.11,10.56-9.26,16.09
						c4.77,1.1,4.79,1.12,6.86-2.41c1.42-2.42,2.79-4.88,4.15-7.34c6.66-12.08,19.67-21.43,32.26-16.37
						c0.59,0.24,1.25,0.42,1.86,0.33c2.47-0.34,3.25,1.34,3.77,3.75c1.38,6.39,2.83,12.76,4.4,19.09c0.3,1.21,1.24,3.11,1.92,3.14
						c6.58,0.24,13.18,0.14,20.15,0.14c-0.82-3.73-1.42-6.46-2.02-9.19c2.82,1.15,4.94,2.9,7.05,4.66c1.83,1.53,3.58,4.2,5.5,4.39
						c5.94,0.58,11.95,0.21,17.99,0.21c-0.78-10.23-1.52-19.86-2.35-30.67c1.96,1.48,2.87,1.98,3.58,2.74
						c7.86,8.4,15.67,16.86,23.54,25.25c0.98,1.04,2.17,2.47,3.32,2.54c4.98,0.28,9.98,0.12,15.99,0.12
						c-9.24-23.77-18.11-46.58-27.22-69.99c9.97-1.95,19.29-2.97,28.6-0.02c4.58,1.45,9.09,3.24,13.56,5.11
						c9.55,3.99,19.25,7.62,28.53,12.34c13.01,6.63,25.7,14.14,38.53,21.24c1.28,0.71,2.62,1.26,4.68,2.24
						c-9.41-13.77-18.59-26.35-26.93-39.64c-8.27-13.17-15.82-26.98-21.52-43c2.13,1.21,3.33,2.49,4.52,2.47
						c9.54-0.14,18.99,1.81,28.53,1.44c3.98-0.15,8.15,0.39,8.01-6.92c1.05,0.89,1.47,1.18,1.82,1.56
						c12.16,13.34,25.91,10.96,33.96-6.06c1.32-2.8,2.93-2.54,4.78-1.93c-0.69-2.97-1.73-5.86-2.23-8.87
						c-0.66-3.98-0.43-7.73,0.19-11.7c1.12-7.16,4.09-13.96,3.87-21.29c-0.07-2.2,0.65-3.9,1.79-5.12
						c-0.15-0.98-0.04-2.08,0.33-3.38c1.51-5.28,3.01-10.58,4.09-15.98c0.91-4.52,2.89-6.18,6.87-6.05
						c8.27,0.28,16.54,0.08,25.29,0.08c0-4.91-0.15-9.86,0.05-14.79C733.68,454.7,732.6,452.82,729.93,451.32z M643.02,89.4
						c2.65-2.23,4.46-1.06,8.52,5.72c0.57-2.78-0.93-7.18,3.29-6.73c2.7,0.29,7.47,1.31,7.57,2.46c0.34,3.79-1.01,7.79-1.72,11.71
						c-0.4-0.03-0.79-0.05-1.19-0.08c1.54,1.2,3.2,2.22,4.58,3.63c2.02,2.07,2.81,4.48,0.59,7.17c-3.5,4.24-12.9,5.83-16.52-0.2
						c1.4-1.56,2.81-3.12,4.21-4.68l-0.4-0.76c-1.66,0.63-3.32,1.75-4.99,1.75c-2.12,0.01-4.71-0.24-6.16-1.67
						c-0.75-0.75,0.52-4.26,0.99-7.22C639.58,97.32,639.86,92.07,643.02,89.4z M726.36,299.43c-16.26,10.71-32.11,21.93-45.17,36.76
						c-10.09-13.51-20.07-26.88-30.19-40.44c0.72,0.05,1.83,0.14,2.94,0.2c3.47,0.17,6.95,0.17,10.4,0.58
						c1.53,0.18,3.08,0.99,4.44,1.88c5.69,3.71,11.36,5.43,17.3,0.69c0.56-0.45,1.47-0.65,2.16-0.51
						C700.87,301.09,713.53,300.52,726.36,299.43z M667.22,280.6c0.07-7.34,4.77-12.63,11.12-12.5c6.4,0.13,10.69,5.13,10.65,12.43
						c-0.04,7.25-5.14,12.94-11.47,12.8C672,293.2,667.16,287.22,667.22,280.6z M700.02,191.39c7.39,3.59,14.09,6.84,21.17,10.28
						c-9.32,20.48-18.49,40.61-27.81,61.07c-4.49-2.18-8.84-4.29-13.6-6.6C686.51,234.61,693.19,213.25,700.02,191.39z
						 M679.42,216.72c0.53-8.14,5.31-12.32,10.61-16.61c-4.08,12.61-8.15,25.21-12.23,37.82c-0.43-0.13-0.86-0.25-1.29-0.38
						C677.52,230.61,678.97,223.71,679.42,216.72z M610.59,170.75c5.63,1.41,11.14,2.65,16.56,4.3c0.79,0.24,1.6,2.39,1.64,3.69
						c0.43,16.1,0.72,32.22,1.06,48.32c0.03,1.52,0.14,3.04,0.21,4.56c0.29,0.11,0.58,0.22,0.88,0.32c0.74-1.24,1.49-2.48,2.21-3.74
						c7.88-13.78,15.82-27.5,23.57-41.38c1.58-2.83,3.17-3.55,5.89-2.65c4.34,1.43,8.79,2.45,14.12,3.89
						c-5.3,32.92-10.61,65.89-15.97,99.19c-7.24-1.64-14.09-3.19-21.65-4.9c2.98-16,5.93-31.88,8.89-47.75
						c-0.2-0.12-0.41-0.24-0.61-0.36c-2.88,5.06-5.78,10.11-8.63,15.2c-2.88,5.15-5.8,10.29-8.52,15.56
						c-1.11,2.14-2.36,2.82-4.32,2.01c-0.59-0.24-1.21-0.42-1.82-0.58c-8.42-2.13-8.54-2.13-8.87-11.96
						c-0.28-8.34-0.22-16.7-0.32-25.05c-0.02-1.51-0.12-3.02-0.89-4.6c-4.02,13.38-8.05,26.77-12.07,40.13
						c-7.01-2.7-13.55-5.22-20.31-7.83C591.28,228.37,600.86,199.79,610.59,170.75z M432.39,217.09c-1.97-2.89-1.85-4.9-0.11-8
						c7.23-12.86,14.23-25.91,21.05-39.07c1.06-2.04,0.76-5.04,1.23-8.69c9.08-6.6,25.6-5.26,36.26,4.18
						c11.39,10.08,15.07,24.56,16.58,40.41c0.85-3.31,1.47-6.72,2.58-9.9c7.03-20.26,18.7-34.45,38.22-36.89
						c18.99-2.38,34.27,10.43,38.38,32.17c4.23,22.37,0.02,42.71-12.8,60.32c-0.91,1.25-3.07,2.33-4.34,1.99
						c-18.13-4.93-36.53-6.58-55.07-6.45c-3.04,0.02-4.74-0.98-5.52-4.32c-1.11-4.76-2.29-9.49-3.55-14.7
						c-1.5,4.45-3.09,8.61-4.32,12.91c-1.57,5.47-4.38,7.36-9.55,8.09c-13.05,1.85-25.95,5.1-38.65,7.74
						c-0.11,0.24,0.1-0.55,0.52-1.11c2.04-2.75,1.47-5.09-0.34-7.77C446.04,237.75,439.34,227.31,432.39,217.09z M659.83,489.12
						c-21.35,28.81-48.48,47.05-79.04,59.11c-18.21,7.19-36.98,11.29-56.12,13.03c-4.44,0.4-7.31,2.51-9.77,6.84
						c-0.66,1.16-1.34,2.3-2.02,3.43c0.76-0.09,1.52-0.18,2.27-0.29c4.21-0.63,7.52-0.67,11.21,1.32c0.38-0.14,0.75-0.25,1.11-0.29
						c23.29-2.72,45.99-8.28,67.83-18.23c1.7-0.77,3.3-1.8,5.21-2.86c5.44,21.32,16,38.98,27.06,56.53
						c-7.07-3.68-14.05-7.62-21.23-10.97c-14.15-6.59-28.4-12.83-43.89-13.74c-15.7-0.92-29.65,2.55-38.33,19.92
						c-4.23,8.48-5.91,17.78-5.99,27.38c-0.07,8.03,0.66,16.07,1.04,24.11c0.09,1.86,0.18,3.72,0.28,5.57
						c-0.34,0.28-0.68,0.56-1.02,0.84c-12.2-12-24.78-23.29-40.31-30.32c-1.01,0.16-2.04,0.08-3.02-0.32
						c-5.5-2.2-11.2-4.71-17.22-4.6c-4.52,0.08-7.41,1.8-11.36,4.27c-1.9,1.19-3.77,1.42-5.42,1.02c-1.89,1.54-3.67,1.3-5.13-1.62
						c-1.84-3.66-4-7.13-5.55-10.94c-0.59-1.45-0.49-4.18,0.33-5.37c7.12-10.41,14.36-20.72,21.81-30.81
						c4.13-5.59,4.34-5.37,1.37-11.6c-0.29-0.6-0.44-1.29-1.04-3.06c3.41,1.34,6.31,1.91,8.61,3.6c0.96,0.7,1.67,2.91,1.71,4.63
						c0.46-0.76,0.96-1.46,1.54-2.08c2.42-2.54,5.74-3.53,9.09-3.52c0.12-1.89,0.19-3.93-0.46-5.74c-0.66-1.81-2.2-2.88-3.96-3.55
						c-3.03-1.16-6.41-1.59-9.56-2.37c-3.27-0.81-6.51-1.69-9.72-2.7c-0.58-0.18-1.16-0.37-1.73-0.56
						c-1.92-0.63-3.95-2.52-5.05-4.49c-6.3-11.3-12.16-22.94-18.58-34.14c-2.01-3.5-1.66-5.8,0.13-8.91
						c8.14-14.1,15.98-28.44,24.3-42.38c2.58-4.32,2.49-7.37,0.1-11.66c-7.66-13.75-14.95-27.78-22.53-41.97
						c4.37-6.48,8.79-13.02,13.22-19.57c7.7-11.4,15.27-22.92,23.17-34.13c2.48-3.52,2.4-6.06,0.23-9.59
						c-10.12-16.42-20.07-32.98-30.08-49.5c-0.94-1.55-1.83-3.13-2.77-4.75c3.72-6.47,7.3-12.84,11.06-19.06
						c0.72-1.18,2.08-2.09,3.31-2.56c59.56-22.86,117.72-19.81,173.89,13.73c21.97,13.11,40.3,31.52,53.33,56.3
						C697.48,390.77,689.62,448.92,659.83,489.12z M705.06,462.8c1.34-5.1,2.48-9.44,3.71-14.12c7.43,4.76,14.53,9.3,22.07,14.12
						H705.06z"/>
					<path d="M440.61,348.27c-6.55-10.37-13.01-20.82-19.51-31.4c-1.26-0.88-2.21-2.15-2.49-3.69c-0.03-0.17-0.07-0.35-0.11-0.52
						c-3.81-6.2-7.64-12.45-11.53-18.75c3.2-3.81,6.4-7.71,9.64-11.57c1.21-2.23,2.65-4.37,3.9-6.49c2.31-3.92,4.56-8.04,8.02-11.09
						c0.62-0.54,1.26-0.95,1.91-1.25c2.6-3.45,4.77-6.68,7.29-9.49c2.57-2.87,2.51-4.96,0.01-7.96
						c-8.24-9.88-16.26-20.01-24.37-30.03c-1.23-1.52-2.22-2.68-0.92-5.2c7.18-13.95,14.05-28.1,21.23-42.04
						c1.61-3.13,1.58-5.12-0.6-7.91c-14.83-18.95-29.47-38.11-44.28-57.08c-1.72-2.21-1.86-3.86-0.86-6.52
						c5.07-13.56,9.93-27.22,14.85-40.85c0.4-1.11,0.68-2.28,1.01-3.43c-3.53-1.17-5.59-0.19-6.57,3.81
						c-0.64,2.63-1.88,5.07-2.85,7.59c-1.29-2.64-1.86-4.91-2.02-7.21c-0.24-3.48-1.61-4.47-4.61-4.41
						c-11.96,0.21-23.92,0.07-35.89,0.08c-1.2,0-2.4,0.16-3.97,0.28c0.5,1.85,0.85,3.22,1.24,4.57c3.55,12.2,6.98,24.46,10.74,36.58
						c1.2,3.86-0.02,5.06-2.91,5.51c-0.87,0.13-1.76,0.15-2.63,0.22c-9.83,0.74-18.54-3.33-26.83-8.8c-3.49-2.3-6.61-5.35-9.9-8.06
						c-1.02-0.98-2.62-1.12-3.78-2.03c-10.31-8.11-20.78-15.99-30.69-24.73c-4.69-4.13-9.31-3.88-15.55-3.44
						c22.26,21.21,43.88,41.25,69.78,54.21c-20.38,0.74-40.32,4.16-60.17,10.16c-0.26-1.64-0.57-2.89-0.65-4.17
						c-1.16-18.66-5.04-36.7-9.37-54.62c-1.6-6.63-2.84-7.24-9.03-5.05c0.33,1.68,0.6,3.39,1,5.06c4.49,18.6,8.37,37.31,9.18,56.73
						c0.14,3.45-0.6,5.18-3.45,6.04c-2.05,0.62-4.22,1.4-5.88,2.82c-2.09,1.78-3.63,1.68-5.77,0.18
						c-18.57-13.04-37.17-26.03-55.83-38.9c-12.44-8.58-25-16.94-37.52-25.36c-0.94-0.63-2.03-0.98-3.05-1.46
						c-0.23,0.36-0.46,0.72-0.68,1.08c17.13,27.83,34.25,55.67,51.85,84.28c-5.56-2.17-10.27-4-14.97-5.84
						c-0.29,0.56-0.58,1.13-0.87,1.69c4.54,5.91,9.08,11.81,13.81,17.98c-6.84,6.27-13.26,12.56-20.07,18.21
						c-3.17,2.63-4.84-2.43-7.34-3.6c-0.36-0.17-0.32-2.87,0.2-3.99c3.64-7.83,1.87-14.45-5.14-17.31
						c-5.55-2.26-11.23-3.43-16.7,0.66c-1.03,0.77-2.26,1.41-3.46,1.64c-7.17,1.41-12.89,5.27-16.93,12.5
						c-3.11,5.57-5.06,12.35-1.38,17.11c4.62,5.98,4.99,12.15,4.89,19.13c-0.02,1.27,0.48,2.56,0.8,3.82
						c1.19,4.66,3.94,6.92,8.08,7.09c7.45,0.3,12.23-4.39,15.82-11.35c0.69-1.34,1.3-2.72,2-4.19c1.31,0.57,2.34,1.02,3.49,1.52
						c-3.71,7.17-7.27,14.21-10.96,21.16c-5.78,10.88-10.68,22.12-12.16,35.05c-1.21,10.51-1.35,10.45-10.39,8.76
						c-5.91-1.1-11.84-2.06-17.71-3.08c-0.3,1.02-0.52,1.43-0.52,1.83c-0.02,12.45-0.08,24.91,0.1,37.36
						c0.02,1.27,1.33,2.97,2.42,3.67c3.53,2.27,7.24,4.17,10.88,6.21c-0.08,0.31-0.16,0.62-0.24,0.93c-4.34,0.3-8.68,0.6-13.22,0.92
						v8.12c8.5-0.53,16.81-1.05,25.13-1.56c0.87,6.02,1.71,11.81,2.55,17.68c-9.23-5.31-18.17-10.46-27.34-15.74
						c-1.27,8.43-0.6,9.8,3.4,12.34c8.48,5.4,16.86,11.04,25.15,16.83c1.61,1.13,2.98,3.16,3.9,5.13
						c4.3,9.23,8.17,18.74,12.64,27.85c4.54,9.25,4.67,11.35-1.78,19.12c-11.29,13.58-24.18,24.67-38.88,32.8
						c-5.55,3.08-5.85,3.66-4.47,11.66c10.52-5.51,20.72-11.35,30.26-18.73c9.65-7.47,18.44-16.03,25.47-27.19
						c15.04,21.18,32.73,37.65,52.62,51.08c0.93,0.63,1.3,2.39,1.95,3.66c4.65-0.03,8.55,3.58,13.37,6.5
						c-0.01,0.01-0.01,0.02-0.02,0.02c3.14-0.28,6.25-0.05,9.37,1.01c4.99,1.69,8.64,4.74,12.95,7.62c0.72,0.48,2.71,2.12,3.6,2.04
						c-1.91-0.77-2.11-0.88-0.63-0.32l0.97,0.31c1.64,0.51,4.22,1.45,5.98,1.31c-2.14-0.28-2.4-0.33-0.77-0.16
						c0.69,0.06,1.38,0.12,2.08,0.16c1.05,0.07,2.09,0.12,3.14,0.16c2.45,0.1,4.9,0.13,7.35,0.22c9.5,0.33,19.35,1.42,27.68,6.39
						c9.39,5.62,13.91,14.38,17.56,24.3c0.8,2.17,1.53,4.36,2.32,6.53c0.21,0.59,0.43,1.17,0.65,1.75c0.4,0.4,0.83,1.72,1.07,2.18
						c0.09,0.18,0.17,0.34,0.23,0.47c0.09,0.08,0.19,0.18,0.31,0.3c1.21,1.22,2.46,2.8,3.92,3.83c0.38,0.21,0.81,0.47,1.05,0.64
						c0.86,0.63,1.72,1.26,2.57,1.9c1.56,1.17,3.1,2.37,4.63,3.58c-0.82-0.65-1.45-1.15,0.06,0.05c-0.02-0.02-0.04-0.03-0.06-0.05
						c0.57,0.45,1.23,0.97,1.33,1.05c3.94,3.01,7.89,6,11.9,8.93c13.27,9.69,28.09,17.24,39.59,29.17
						c4.52,4.69,9.06,10.09,11.3,16.33c1.43,1.36,2.87,2.68,4.35,3.92c2.5,2.1,2.51,3.67,0.7,6.29
						c-4.73,6.85-9.21,13.93-13.96,20.76c-0.99,1.43-2.74,2.15-4.25,3.28c8.09,7.63,12.77,18.86,17.47,30.47
						c-10.13,4.7-18.29,11.58-25.98,20.72c6.58,0,12.34,0.11,18.09-0.1c1-0.04,2.22-1.19,2.89-2.22
						c3.72-5.72,7.19-11.67,10.98-17.32c1.61-2.4,1.57-4.11,0.1-6.55c-5.04-8.39-9.9-16.93-14.87-25.49
						c0.56-0.93,1.03-1.79,1.57-2.59c8.29-12.34,16.55-24.71,24.9-36.99c1.41-2.08,2.1-3.68,0.38-6.1
						c-4.63-6.55-9.09-13.28-13.59-19.95c-6.61-9.79-13.19-19.61-19.79-29.4c-1.12-1.66-1.97-3.02-0.64-5.36
						c4.97-8.81,9.7-17.81,14.56-26.71c0.66-1.21,1.48-2.31,2.63-4.07c1.15-2.29,2.63-4.33,3.9-6.63c1.58-2.87,2.77-6.01,3.94-9.06
						c1.29-3.35,2.73-6.63,3.94-10.01c0.99-2.76,2.53-5.58,2.56-8.57c0-0.1,0.01-0.19,0.02-0.29c-0.1-0.44-0.22-0.88-0.35-1.32
						c0,0.25,0,0.49,0,0.74c-1.46-2.12-2.49-3.53-3.43-5.02c-6.7-10.62-13.28-21.34-20.12-31.84c-1.56-2.4-1.33-3.84,0.13-5.99
						c10.63-15.61,21.07-31.39,31.82-46.88C443.19,354.95,443.13,352.27,440.61,348.27z M382.36,79.19c3.5,3.58,4.87,7.07,2.4,11.45
						c-4.67,8.29-3.81,15.34,3.4,21.03c0.47,0.37,0.75,1.05,1.36,1.94c-9.02-1.66-17.59-3.23-26.71-4.91
						C373.93,102.71,378.6,91.49,382.36,79.19z M167.48,192.23v-7.97c-0.25-0.09-0.49-0.17-0.74-0.26
						c-0.65,1.78-1.25,3.57-1.94,5.33c-1.56,3.97-2.73,8.29-4.9,11.76c-1.75,2.8-4.5,5.15-7.23,6.64c-4.3,2.36-7.19,0.6-8.22-4.7
						c-0.76-3.89-0.83-7.96-1.2-11.93c2.58-0.47,4.39-0.79,7.2-1.3c-3.05-1.56-5.21-2.52-7.26-3.74c-5.14-3.09-6.8-9.39-3.98-15.26
						c2.86-5.94,7.48-9.26,13.19-11.46c0.13,1.75,0.24,3.27,0.36,4.88c5.97-8.63,12.26-10.96,19.66-7.51
						c2.61,1.22,4.58,2.95,3.67,6.52c-0.86,3.41-0.79,7.99-5.55,7.81c-0.54-0.02-1.09,0.41-2.29,0.91c2.94,1.83,5.45,3.05,7.62,4.84
						c2.09,1.72,3.83,4.03,5.63,5.99C176.28,192.62,173.88,194.21,167.48,192.23z M435.09,357.14
						c-10.76,15.68-21.2,31.66-31.89,47.4c-2.03,3-2.25,5.08-0.12,8.29c8.27,12.5,16.25,25.25,24.54,38.22
						c-10.2,6.68-20.79,11.55-31.91,14.82c-5.73,1.68-11.53,3.02-17.33,4.34c-5.83,1.33-7.86,3.92-7.46,10.85
						c1.05,18.13,6.2,34.88,13.17,50.95c1.55,3.58,3.27,7.07,4.32,11.3c-5.2-3.7-10.53-7.16-15.57-11.13
						c-18.53-14.61-34.6-32.12-46.61-54.32c-1.95-3.6-4.62-5.55-8.31-5.99c-33.83-4.11-65.47-15.98-94.2-37.31
						c-30.7-22.8-54.79-52.47-65.14-94.04c-13.57-54.48-3.35-103.58,28.49-146.2c27.17-36.38,62.4-57.1,102.29-67.68
						c37.28-9.88,74.43-8.76,111.28,3.28c1.17,0.38,2.56,0.83,3.32,1.8c8.63,11.04,17.17,22.18,25.83,33.44
						c-7.72,15.21-15.1,30.03-22.77,44.65c-1.83,3.49-1.34,5.43,0.97,8.18c8.7,10.36,17.17,20.99,26.02,31.88
						c-2.79,3.86-5.36,7.58-8.07,11.15c-7.34,9.65-14.62,19.37-22.19,28.78c-2.54,3.16-2.32,5.34-0.27,8.6
						c10.64,16.9,21.05,33.98,31.66,50.9C436.96,352.16,437.2,354.07,435.09,357.14z"/>
					<path d="M129.14,562.84c-2.08,2.27-4.23,4.4-6.6,6.13c-3.32,2.43-4.1,5.28-4.11,8.52c3.6-4.15,7.38-8.12,11.22-12.07
						C129.46,564.57,129.29,563.71,129.14,562.84z"/>
					<path d="M118.75,582.17c4.86-1.89,9.61-3.73,14.39-5.59c-0.94-2.39-1.82-4.8-2.53-7.26c-0.37-1.28-0.68-2.58-0.96-3.89
						c-3.84,3.95-7.62,7.91-11.22,12.07C118.43,578.97,118.59,580.53,118.75,582.17z"/>
					<path d="M235.56,637.22c-0.35-0.67-0.62-1.35-0.82-2.04c-0.84,0.37-1.67,0.73-2.5,1.09c1.56,1.92,2.18,3.94,0.94,6.04
						c1.24-2.1,0.62-4.12-0.94-6.04c-1.93,0.84-3.84,1.68-5.73,2.51c-0.58,0.46-1.18,0.91-1.8,1.35c0.83-0.32,1.72-0.67,2.71-1.06
						c-1.92,9.8-5.18,18.63-9.88,27.26c7.66,1.04,8.38,0.87,10.49-3.5c3.69-7.65,7.72-15.26,9.36-23.21
						C236.6,638.84,235.98,638.02,235.56,637.22z"/>
					<path d="M169.7,460.64c-11.19-4.82-22.84-7.49-34.61-9.56c-5.52-0.97-11.09-1.49-16.61-2.21c-0.91,9.02-0.9,8.91,5.72,10.08
						c10.86,1.91,21.93,2.59,32.35,7.19c2.48-0.05,4.88,0.24,7.19,0.87c0.1-0.21,0.22-0.42,0.34-0.63
						c-1.59-1.46-3.37-2.86-5.38-4.21c2.01,1.34,3.8,2.75,5.38,4.21C165.39,464.04,167.38,462.06,169.7,460.64z"/>
					<path d="M239.44,666.14c19.1-17.88,37.92-34.47,61.69-40.71c17.74-4.66,33.02,5.59,38.96,25.6c1.43,4.81,2.52,9.75,3.76,14.6
						c-6.49,2.76-8.93,1.59-11.14-5.18c-0.8-2.43-1.42-4.97-1.89-7.52c-1.4-7.62-10.86-16.48-17.47-16.23
						c-0.37,0.01-0.76,0.07-1.12,0.01c-8.04-1.44-15.53,0.86-22.51,5.17c-10.19,6.3-20.42,12.6-30.14,19.8
						C253.42,666.22,247.25,667.45,239.44,666.14z"/>
					<path d="M649.14,568.07c7.41-6.37,13.37-7.1,17.4-2.22c3.87,4.68,3.67,11.16,0.03,16.62c1.07,4.61,2.77,8.58,2.76,12.55
						c-0.01,8.2-5.49,11.76-11.94,8.59c-1.01-0.5-2.46-0.5-3.5-0.06c-5.51,2.36-10.16,0.29-13.07-5.54
						c-0.89-1.78-2.56-3.38-4.2-4.23c-10.76-5.61-13.79-14.99-8.57-26.98c2.84-6.52,10.47-6.62,16.44-3
						C646.13,564.8,647.45,566.5,649.14,568.07z M650.09,581.77c-0.57-0.03-1.14-0.07-1.71-0.1c-0.49-2.6-0.98-5.21-1.47-7.81
						c-0.21-1.14-0.06-2.87-0.65-3.34c-2.36-1.87-4.81-3.83-7.48-4.85c-3.89-1.48-6.9,0.78-8.23,5.25
						c-2.03,6.83,2.74,18.77,9.32,19.16c0.69-1.64,1.41-3.33,2.44-5.78c2.13,15.27,6.93,19.17,13.83,13.58
						c2.37,1.29,4.71,3.62,5.95,2.99c1.73-0.87,3.48-3.86,3.67-6.11c0.21-2.57-0.93-5.59-2.15-7.95c-1.09-2.11-3.08-3.59-5.19-5.92
						c2.01,0.37,3.32,0.62,4.87,0.91c0.46-1.78,1.35-3.6,1.29-5.37c-0.09-2.59-0.25-5.66-1.48-7.6c-1.7-2.7-4.58-1.82-6.93-0.47
						C651.59,570.99,648.42,574.71,650.09,581.77z"/>
					<path d="M148.15,369.82c-1.16-0.87-2.13-2.7-2.47-4.29c-2.07-9.64-10.31-18.82-18.59-19.83c-4.12-0.5-7.91-0.13-8.92,3.69
						c-3.1,0.76-5.43,2.44-5.31,6.92c0.08,2.98,1.08,5.9,1.42,8.85c0.35,2.98,0.5,6,0.67,8.99c0.36,6.37-0.04,12.59-0.7,18.92
						c-0.28,2.72-1.12,6.05-0.48,8.75c0.58,2.47,2.53,3.63,4.64,4.58c-0.13,0.97-0.15,2.24-0.21,2.63c2.26,0.81,3.72,1.18,5.07,1.84
						c8.97,4.37,15.81,0.75,18.8-9.93c0.33-1.19,1.21-2.17,1.7-3.32c2.61-6.1,5.48-12.09,7.64-18.4
						C152.67,375.54,151.3,372.17,148.15,369.82z M147.56,378.31c-1.32,5.32-3.49,10.36-5.55,16.27c-1.71-2.31-2.54-3.43-3.99-5.37
						c0.22,3.26,0.54,5.41,0.48,7.55c-0.11,4.17-1.36,7.81-4.79,9.84c-3.07,1.81-5.97,1.28-8.97-0.48c2.38-1.97,3.06-5.82-0.48-7.36
						c-0.42-0.18-0.83-0.36-1.23-0.54c0.1-0.86,0.27-1.82,0.33-2.41c0.2-2.07,0.44-4.13,0.64-6.2c0.02-0.18,0.03-0.36,0.05-0.54
						c0.52,0.1,1.08,0.18,1.68,0.22c3.95,0.26,7.05-2.43,7.06-6.13c-3.67,2.86-5.9,3.83-8.48,2.64c0.18-2.69,0.27-5.38,0.19-8.08
						c-0.11-3.75-0.37-7.51-0.7-11.24c-0.18-1.97-0.4-3.93-0.74-5.88c-0.13-0.73-0.39-1.59-0.59-2.46c0.7-0.04,1.4-0.08,2.06-0.14
						c3.63-0.34,5.07-3.94,4.29-6.59c6.37,3.05,10.91,8.34,13.03,16.96c-1.7,0.23-2.99,0.4-4.27,0.57
						c-0.07,0.42-0.14,0.85-0.21,1.27c1.7,0.5,3.39,1.02,5.09,1.49C145.55,372.57,148.62,374,147.56,378.31z"/>
					<path class="st8" d="M454.73,161.34c9.08-6.6,25.6-5.26,36.26,4.18c11.39,10.08,15.07,24.56,16.58,40.41
						c0.85-3.31,1.47-6.72,2.58-9.9c7.03-20.26,18.7-34.45,38.22-36.89c18.99-2.38,34.27,10.43,38.38,32.17
						c4.23,22.37,0.02,42.71-12.8,60.32c-0.91,1.25-3.07,2.33-4.34,1.99c-18.13-4.93-36.53-6.58-55.07-6.45
						c-3.04,0.02-4.74-0.98-5.52-4.32c-1.11-4.76-2.29-9.49-3.55-14.7c-1.5,4.45-3.09,8.61-4.32,12.91
						c-1.57,5.47-4.38,7.36-9.55,8.09c-13.05,1.85-25.95,5.1-38.65,7.74c-0.11,0.24,0.1-0.55,0.52-1.11
						c2.04-2.75,1.47-5.09-0.34-7.77c-6.92-10.24-13.62-20.69-20.58-30.9c-1.97-2.89-1.85-4.9-0.11-8
						c7.23-12.86,14.23-25.91,21.05-39.07C454.56,167.98,454.26,164.98,454.73,161.34z M564.55,207.03
						c-0.11-1.5-0.13-3.42-0.42-5.28c-1.22-7.77-3.81-14.41-11.29-16.17c-7.46-1.75-12.7,2.65-16.47,9.4
						c-5.9,10.56-8.33,22.19-5.89,34.7c1.29,6.62,4.26,12.11,10.42,13.59c6.37,1.53,11.62-1.36,15.57-7.21
						C562.13,227.69,564.19,217.88,564.55,207.03z M448.5,218.42c1.13,5.42,1.75,10.68,3.35,15.5c2,6.01,5.68,10.41,11.72,10.81
						c6.22,0.41,10.7-3.27,13.64-9.16c5.39-10.79,7.17-22.47,4.67-34.7c-0.68-3.34-1.94-6.72-3.62-9.54
						c-4.63-7.77-13.09-8.97-19.02-2.47c-2.76,3.02-5.29,6.88-6.64,10.94C450.62,205.71,449.81,212.14,448.5,218.42z"/>
					<path class="st8" d="M631.1,231.95c0.74-1.24,1.49-2.48,2.21-3.74c7.88-13.78,15.82-27.5,23.57-41.38
						c1.58-2.83,3.17-3.55,5.89-2.65c4.34,1.43,8.79,2.45,14.12,3.89c-5.3,32.92-10.61,65.89-15.97,99.19
						c-7.24-1.64-14.09-3.19-21.65-4.9c2.98-16,5.93-31.88,8.89-47.75c-0.2-0.12-0.41-0.24-0.61-0.36
						c-2.88,5.06-5.78,10.11-8.63,15.2c-2.88,5.15-5.8,10.29-8.52,15.56c-1.11,2.14-2.36,2.82-4.32,2.01
						c-0.59-0.24-1.21-0.42-1.82-0.58c-8.42-2.13-8.54-2.13-8.87-11.96c-0.28-8.34-0.22-16.7-0.32-25.05
						c-0.02-1.51-0.12-3.02-0.89-4.6c-4.02,13.38-8.05,26.77-12.07,40.13c-7.01-2.7-13.55-5.22-20.31-7.83
						c9.64-28.77,19.22-57.35,28.95-86.38c5.63,1.41,11.14,2.65,16.56,4.3c0.79,0.24,1.6,2.39,1.64,3.69
						c0.43,16.1,0.72,32.22,1.06,48.32c0.03,1.52,0.14,3.04,0.21,4.56C630.52,231.73,630.81,231.84,631.1,231.95z"/>
					<path class="st5" d="M600.68,551.19c-1.91,1.06-3.52,2.09-5.21,2.86c-21.84,9.95-44.54,15.51-67.83,18.23
						c-0.39,0.05-0.8,0.16-1.21,0.32c0.26,0.14,0.53,0.3,0.8,0.46c3.41,2.1,5.03,6.95,2.75,10.49c-2.94,4.58-7.56,7.08-12.34,9.34
						c-2.48,1.17-4.9,2.47-7.27,3.84c-0.63,1.59-1.79,3.03-3.25,4.16c-4.58,3.54-8.54,9.04-12.8,13.31
						c-2.88,2.89-6.06,5.51-9.57,7.52c0.15,0.97,0.1,2.01-0.2,3.1c-0.74,2.7-3.41,5.14-6.29,5.65
						c15.56,7.03,28.15,18.33,40.36,30.34c0.34-0.28,0.68-0.56,1.02-0.84c-0.09-1.86-0.19-3.72-0.28-5.57
						c-0.38-8.04-1.11-16.08-1.04-24.11c0.08-9.6,1.75-18.9,5.99-27.38c8.67-17.37,22.63-20.84,38.33-19.92
						c15.49,0.91,29.74,7.15,43.89,13.74c7.18,3.35,14.16,7.29,21.23,10.97C616.68,590.17,606.12,572.51,600.68,551.19z"/>
					<path class="st8" d="M414.34,288.07c0.4-1.82,1.13-3.54,1.99-5.21c-3.09,3.69-6.13,7.4-9.19,11.04
						c3.8,6.17,7.55,12.28,11.28,18.35C416.77,304.2,412.47,296.51,414.34,288.07z"/>
					<path class="st8" d="M457.38,350.15c-8.6-14.03-16.82-28.39-25.62-42.25c0.12,0.52,0.23,1.03,0.32,1.55
						c0.66,3.73-0.96,7.52-4.88,8.6c-1.88,0.52-4.1,0.1-5.82-0.99c6.46,10.51,12.88,20.9,19.39,31.21
						c2.52,3.99,2.59,6.68-0.13,10.58c-10.76,15.49-21.19,31.28-31.82,46.88c-1.46,2.15-1.69,3.59-0.13,5.99
						c6.83,10.5,13.42,21.22,20.12,31.84c0.94,1.49,1.98,2.89,3.43,5.02c0-0.06,0-0.12,0-0.17c-0.6-2.18-1.59-4.25-3.06-6.06
						c-0.71-0.87-0.95-1.84-0.87-2.75c-1.42-2.64,0.75-5.75,3.13-5.87c-3.11-6.01-6.03-12.18-9.5-17.9
						c-2.15-3.55-1.86-5.93,0.39-9.17c11.68-16.88,23.14-33.96,34.76-50.89C458.48,353.77,458.8,352.46,457.38,350.15z"/>
					<path class="st2" d="M143.42,191.11c2.58-0.47,4.39-0.79,7.2-1.3c-3.05-1.56-5.21-2.52-7.26-3.74
						c-5.14-3.09-6.8-9.39-3.98-15.26c2.86-5.94,7.48-9.26,13.19-11.46c0.13,1.75,0.24,3.27,0.36,4.88
						c5.97-8.63,12.26-10.96,19.66-7.51c2.61,1.22,4.58,2.95,3.67,6.52c-0.86,3.41-0.79,7.99-5.55,7.81
						c-0.54-0.02-1.09,0.41-2.29,0.91c2.94,1.83,5.45,3.05,7.62,4.84c2.09,1.72,3.83,4.03,5.63,5.99
						c-5.23,9.83-7.63,11.43-14.02,9.45c0-2.6,0-5.28,0-7.97c-0.25-0.09-0.49-0.17-0.74-0.26c-0.65,1.78-1.25,3.57-1.94,5.33
						c-1.56,3.97-2.73,8.29-4.9,11.76c-1.75,2.8-4.5,5.15-7.23,6.64c-4.3,2.36-7.19,0.6-8.22-4.7
						C143.87,199.15,143.8,195.09,143.42,191.11z"/>
					<path class="st8" d="M700.19,191.39c7.39,3.59,14.09,6.84,21.17,10.28c-9.32,20.48-18.49,40.61-27.81,61.07
						c-4.49-2.18-8.84-4.29-13.6-6.6C686.68,234.61,693.36,213.25,700.19,191.39z"/>
					<path class="st8" d="M726.52,299.43c-16.26,10.71-32.11,21.93-45.17,36.76c-10.09-13.51-20.07-26.88-30.19-40.44
						c0.72,0.05,1.83,0.14,2.94,0.2c3.47,0.17,6.95,0.17,10.4,0.58c1.53,0.18,3.08,0.99,4.44,1.88c5.69,3.71,11.36,5.43,17.3,0.69
						c0.56-0.45,1.47-0.65,2.16-0.51C701.03,301.09,713.7,300.52,726.52,299.43z"/>
					<path class="st5" d="M438.78,616.62c2.93-1.83,5.87-3.36,8.96-4.47c0.01-0.7,0.11-1.44,0.34-2.23
						c1.38-4.64,3.66-8.88,5.87-13.16c2.1-4.09,3.63-8.43,5.53-12.62c1.21-2.68,2.22-6.04,3.89-8.66c-0.1-1.68-0.79-3.72-1.7-4.39
						c-2.3-1.69-5.2-2.27-8.61-3.6c0.6,1.78,0.75,2.46,1.04,3.06c2.97,6.23,2.76,6.01-1.37,11.6c-7.45,10.09-14.69,20.4-21.81,30.81
						c-0.82,1.19-0.92,3.92-0.33,5.37c1.55,3.81,3.71,7.28,5.55,10.94c1.45,2.9,3.22,3.15,5.09,1.65
						C435.51,629.64,432.27,620.69,438.78,616.62z"/>
					<path class="st2" d="M651.71,95.12c0.57-2.78-0.93-7.18,3.29-6.73c2.7,0.29,7.47,1.31,7.57,2.46
						c0.34,3.79-1.01,7.79-1.72,11.71c-0.4-0.03-0.79-0.05-1.19-0.08c1.54,1.2,3.2,2.22,4.58,3.63c2.02,2.07,2.81,4.48,0.59,7.17
						c-3.5,4.24-12.9,5.83-16.52-0.2c1.4-1.56,2.81-3.12,4.21-4.68c-0.13-0.25-0.27-0.51-0.4-0.76c-1.66,0.63-3.32,1.75-4.99,1.75
						c-2.12,0.01-4.71-0.24-6.16-1.67c-0.75-0.75,0.52-4.26,0.99-7.22c-2.23-3.21-1.95-8.45,1.21-11.12
						C645.84,87.17,647.65,88.35,651.71,95.12z"/>
					<path class="st8" d="M689.16,280.52c-0.04,7.25-5.14,12.94-11.47,12.8c-5.53-0.12-10.37-6.1-10.31-12.73
						c0.07-7.34,4.77-12.63,11.12-12.5C684.91,268.22,689.2,273.23,689.16,280.52z"/>
					<path class="st8" d="M382.53,79.19c3.5,3.58,4.87,7.07,2.4,11.45c-4.67,8.29-3.81,15.34,3.4,21.03
						c0.47,0.37,0.75,1.05,1.36,1.94c-9.02-1.66-17.59-3.23-26.71-4.91C374.1,102.71,378.76,91.49,382.53,79.19z"/>
					<path class="st8" d="M731,462.8c-8.74,0-16.88,0-25.78,0c1.34-5.1,2.48-9.44,3.71-14.12C716.37,453.43,723.47,457.98,731,462.8
						z"/>
					<path class="st3" d="M676.68,237.55c1.01-6.94,2.46-13.84,2.91-20.83c0.53-8.14,5.31-12.32,10.61-16.61
						c-4.08,12.61-8.15,25.21-12.23,37.82C677.54,237.8,677.11,237.68,676.68,237.55z"/>
					<path class="st2" d="M650.09,581.77c-1.67-7.06,1.5-10.78,6.08-13.4c2.35-1.35,5.23-2.22,6.93,0.47
						c1.22,1.93,1.39,5.01,1.48,7.6c0.06,1.78-0.83,3.59-1.29,5.37c-1.55-0.29-2.87-0.53-4.87-0.91c2.11,2.32,4.1,3.8,5.19,5.92
						c1.22,2.36,2.36,5.37,2.15,7.95c-0.19,2.25-1.94,5.24-3.67,6.11c-1.24,0.63-3.58-1.7-5.95-2.99
						c-6.9,5.58-11.71,1.69-13.83-13.58c-1.03,2.45-1.74,4.14-2.44,5.78c-6.58-0.39-11.35-12.33-9.32-19.16
						c1.33-4.47,4.34-6.74,8.23-5.25c2.67,1.02,5.12,2.98,7.48,4.85c0.59,0.47,0.44,2.2,0.65,3.34c0.48,2.61,0.98,5.21,1.47,7.81
						C648.95,581.7,649.52,581.74,650.09,581.77z"/>
					<path d="M564.55,207.03c-0.36,10.85-2.42,20.66-8.09,29.04c-3.96,5.85-9.2,8.74-15.57,7.21c-6.16-1.47-9.13-6.96-10.42-13.59
						c-2.44-12.51-0.01-24.14,5.89-34.7c3.77-6.76,9.01-11.15,16.47-9.4c7.48,1.75,10.07,8.4,11.29,16.17
						C564.41,203.61,564.43,205.52,564.55,207.03z M556.7,208.36c0-1.61,0.07-3.22-0.01-4.82c-0.27-5.12-2.24-7.26-6.58-7.64
						c-3.27-0.28-5.54,1.56-7.38,4.34c-4.88,7.37-6.04,15.89-5.45,24.88c0.27,4.19,1.7,7.74,5.33,9.25c3.23,1.34,6.73-0.6,9.3-4.81
						C555.8,223.22,556.9,215.97,556.7,208.36z"/>
					<path d="M448.5,218.42c1.32-6.28,2.13-12.71,4.1-18.62c1.35-4.06,3.89-7.92,6.64-10.94c5.93-6.5,14.39-5.3,19.02,2.47
						c1.68,2.81,2.94,6.2,3.62,9.54c2.5,12.24,0.73,23.92-4.67,34.7c-2.95,5.89-7.42,9.57-13.64,9.16
						c-6.04-0.4-9.73-4.8-11.72-10.81C450.24,229.1,449.62,223.83,448.5,218.42z M455.65,218.53c0.86,4.21,1.23,8.67,2.69,12.58
						c2.4,6.42,7.31,6.99,11.37,1.84c5.57-7.07,7.46-24.69,3.57-33.26c-2.54-5.6-7.9-6.32-11.46-1.32
						C457.73,204.13,456.1,210.93,455.65,218.53z"/>
					<path class="st15" d="M556.7,208.36c0.2,7.61-0.9,14.85-4.79,21.21c-2.58,4.21-6.07,6.15-9.3,4.81
						c-3.64-1.51-5.06-5.06-5.33-9.25c-0.59-8.99,0.57-17.51,5.45-24.88c1.84-2.78,4.11-4.62,7.38-4.34
						c4.34,0.38,6.31,2.52,6.58,7.64C556.77,205.15,556.7,206.76,556.7,208.36z"/>
					<path class="st15" d="M455.65,218.53c0.44-7.6,2.08-14.4,6.18-20.16c3.56-5,8.92-4.28,11.46,1.32
						c3.89,8.58,1.99,26.2-3.57,33.26c-4.06,5.15-8.97,4.58-11.37-1.84C456.88,227.21,456.51,222.75,455.65,218.53z"/>
				</g>
				<path class="st16" d="M465.39,566.32c0,0.88,27.5,1.59,61.49,1.59"/>
				<g>
					<polygon class="st13" points="683.97,444.18 700,444.2 702.2,449.56 689.1,524.39 660.68,523.25 657.66,514.75 					"/>
					<polygon class="st7" points="686.23,448.23 696.51,448.51 684.87,516.9 666.95,516.02 665.05,507.6 					"/>
					
						<ellipse transform="matrix(0.9929 -0.1187 0.1187 0.9929 -59.377 83.216)" class="st7" cx="668.93" cy="540.09" rx="14.26" ry="13.84"/>
				</g>
				<polygon class="st5" points="437.13,632.92 440.92,632.92 452.38,627.55 462.42,627.55 478.24,631.81 536.29,578.8 
					536.29,573.79 527.63,572.28 458.02,570.18 434.14,618.93 				"/>
			</g>
			<polygon class="st7" points="620.44,545.01 620.44,549.88 648.75,549.88 645.98,530.31 			"/>
			<polygon class="st5" points="692.55,502.31 739.33,524.55 743.34,474.1 700.87,466.88 			"/>
			<path class="st7" d="M694.76,389.36l44.17-2.25v48.77l-33.7,8.28h-11.79C696.73,434.81,697.1,416.31,694.76,389.36z"/>
			<polyline class="st5" points="735.83,384.23 734.68,356.15 692.28,363.74 			"/>
			<path class="st8" d="M518.14,54.09c-13.6,19.83-27.64,39.18-44.34,55.66c-6.28,6.2-13.19,11.12-21.07,14.27
				c-8.53,3.42-16.82,2.59-25.11-0.86c-0.67-0.28-1.34-0.58-2.43-0.28c7.43,10.39,14.85,20.77,22.43,31.36
				c25.85-12.32,47-6.54,62.06,22.59c11.72-18.82,26.97-29.89,47.74-27.04c21.16,2.9,33.28,17.43,37.85,42.26
				c2.6-7.94,4.87-15.01,7.23-22.04c2.45-7.3,3.24-7.99,8.73-8.91c2.89-12.63,5.23-25.03,8.62-37.02
				c3.4-12.01,7.85-23.62,11.83-35.35c-5.95,5.18-12.03,10.53-18.16,15.77c-14.21,12.15-28.58,24.05-44.83,32.32
				c-4.23,2.15-8.72,3.87-13.23,5c-12.96,3.25-23.54-3.83-27.96-18.45c-3.61-11.94-4.26-24.34-3.7-36.84
				c0.4-8.92,1.07-17.82,1.86-26.71c0.33-3.73,0.55-5.75,1.41-6.71h-8.82C518.25,53.55,518.27,53.9,518.14,54.09z"/>
			
				<pattern  id="SVGID_00000147908303759610359670000018398076159523928753_" xlink:href="#New_Pattern_2" patternTransform="matrix(1 0 0 1 204.0945 0)">
			</pattern>
			<path style="fill:url(#SVGID_00000147908303759610359670000018398076159523928753_);" d="M518.47,54.09
				c-13.6,19.83-27.64,39.18-44.34,55.66c-6.28,6.2-13.19,11.12-21.07,14.27c-8.53,3.42-16.82,2.59-25.11-0.86
				c-0.67-0.28-1.34-0.58-2.43-0.28c7.43,10.39,14.85,20.77,22.43,31.36c25.85-12.32,47-6.54,62.06,22.59
				c11.72-18.82,26.97-29.89,47.74-27.04c21.16,2.9,33.28,17.43,37.85,42.26c2.6-7.94,4.87-15.01,7.23-22.04
				c2.45-7.3,3.24-7.99,8.73-8.91c2.89-12.63,5.23-25.03,8.62-37.02c3.4-12.01,7.85-23.62,11.83-35.35
				c-5.95,5.18-12.03,10.53-18.16,15.77c-14.21,12.15-28.58,24.05-44.83,32.32c-4.23,2.15-8.72,3.87-13.23,5
				c-12.96,3.25-23.54-3.83-27.96-18.45c-3.61-11.94-4.26-24.34-3.7-36.84c0.4-8.92,1.07-17.82,1.86-26.71
				c0.33-3.73,0.55-5.75,1.41-6.71h-8.82C518.58,53.55,518.61,53.9,518.47,54.09z"/>
			<path class="st2" d="M394.1,464.99c0.82-0.23,1.64-0.44,2.45-0.68c9.28-2.73,18.18-6.57,26.81-11.65
				C413.84,457.62,404.08,461.74,394.1,464.99z"/>
			<path d="M379.91,480.44c-0.38-6.52,0.94-10.03,4.61-12.12c-20.18,4.33-41.05,6.09-62.63,5.28c-0.37,0-0.73-0.01-1.09-0.01
				c0.65,0.82,1.26,1.72,1.81,2.74c15.4,28.47,36.02,50.93,59.77,69.67c6.46,5.09,13.3,9.54,19.96,14.28
				c-1.36-5.42-3.55-9.89-5.55-14.49C387.86,525.17,381.26,503.69,379.91,480.44z"/>
			<path class="st2" d="M374.41,478.17c-0.28-5.3,0.71-8.16,3.48-9.85c-15.21,3.52-30.95,4.95-47.22,4.29
				c-0.28,0-0.55-0.01-0.82-0.01c0.49,0.66,0.95,1.4,1.36,2.23c11.61,23.14,27.15,41.39,45.07,56.62
				c4.87,4.14,10.03,7.75,15.05,11.6c-1.02-4.4-2.68-8.04-4.18-11.77C380.4,514.52,375.42,497.07,374.41,478.17z"/>
			<path d="M365.71,527.96c-0.53-0.03-1.06-0.09-1.6-0.17c-0.26-1.06-0.93-2.04-2.15-2.75c-7.24-4.21-13.54-9.85-20-15.13
				c-0.04-0.03-0.07-0.06-0.11-0.09c-5.08-6.54-10.17-13.07-15.21-19.64c-5-6.5-9.48-14.34-16.92-18.32
				c-2.68-1.43-5.21-0.1-6.39,1.95c-3.23-1.72-6.73-2.88-10.59-3.21c-11.67-0.99-24.55-3.01-35.27-7.99
				c-10.07-4.67-18.07-12.76-28.1-17.55c-5.43-2.6-10.21,5.51-4.75,8.12c9.83,4.7,17.71,12.54,27.5,17.27
				c10.32,4.99,22.49,7.55,33.81,8.98c0.89,0.11,1.79,0.17,2.7,0.23c-0.22,1.26,0.16,2.62,1.48,3.76
				c5.76,4.95,10.13,11.3,15.87,16.34c6.13,5.38,12.43,10.6,18.74,15.77c5.99,4.92,12.17,9.6,18.91,13.44
				c6.72,3.82,14.21,7.96,22.07,8.38C371.76,537.69,371.74,528.29,365.71,527.96z"/>
			<polygon class="st11" points="546.93,52.35 532.41,94.27 533.87,53.23 			"/>
			<polyline class="st11" points="508.58,53.12 472.95,95.82 479.9,53.12 			"/>
			<path class="st11" d="M457.24,53.12l-14.89,61.59c0,0-28.64-0.48-14.56-14.56S457.24,53.12,457.24,53.12z"/>
			<polygon class="st12" points="424.22,52.86 434.91,96.8 457.24,53.13 			"/>
			<polygon class="st12" points="347.9,50.41 360.32,93.68 382.53,76.47 394.39,61.68 389.69,49.64 			"/>
			<path class="st8" d="M264.44,53.02c0.01,0.02,0.05,0.22,0.13,0.57c1.35,5.98,12.54,56.74,12.49,62.86
				c-0.02,2.23,49.8-9.54,60.32-9.29s-70.73-54.8-70.73-54.8h-2.98"/>
			<polygon class="st11" points="323.7,49.64 341.27,49.64 354.34,100.01 341.6,100.01 			"/>
			<polygon class="st11" points="306.45,53.48 320.81,74.83 275.9,53.48 			"/>
			<polygon class="st11" points="222.21,52.35 253.23,124.33 264.89,121.33 239.44,53.48 			"/>
			<polyline class="st11" points="175.54,25.6 197.41,85.43 125.78,36.21 181.5,20.29 			"/>
			<polyline class="st12" points="259,124.15 152.74,52.35 205.29,159.59 261.5,122.59 			"/>
			<polygon class="st5" points="98.13,83.91 165.89,79.19 205.29,159.59 			"/>
			<polygon class="st5" points="122.48,134.24 144.21,157.24 135.13,170.53 117.7,174.84 111.44,129.74 			"/>
			<polyline class="st5" points="107.13,205.36 151.71,236.64 147.11,255.27 			"/>
			<path class="st12" d="M131.91,310.03l-30.09-15.46l7.63-39.3l38.33,7.46c0,0-6.49,37.26-5.82,45.66
				C142.61,316.79,131.91,310.03,131.91,310.03z"/>
			<polyline class="st5" points="143.77,397.61 156.75,407.73 135.15,426.9 133.14,411.41 			"/>
			<polyline class="st5" points="101.82,497.2 151.68,462.28 101.82,524.16 			"/>
			<polygon class="st5" points="156.75,485 110.77,540.09 154.5,507.72 			"/>
			<polyline class="st5" points="113.76,628.22 143.88,606 145.93,610.64 151.68,628.22 			"/>
			<polygon class="st5" points="192.14,657.29 218.45,645.66 206.95,668.37 			"/>
			<path class="st5" d="M280.48,646.38v24.71l14.19-33.11l1.56,34.44c0,0,8.23-39.13,7.35-38.47"/>
			<path class="st8" d="M422.2,279.86c-6.98,0-6.99,10.85,0,10.85C429.18,290.71,429.19,279.86,422.2,279.86z"/>
		</g>
	</g>
	<g>
		<path d="M252.14,178.46h46.68v60.56h-5.03v-4.32h-36.68v4.75h-4.96V178.46z M293.79,183.35h-36.68v20.64h36.68V183.35z
			 M257.11,229.81h36.68v-21.07h-36.68V229.81z"/>
		<path d="M375.93,194.28h-26.25c6.19,12.8,16.97,24.67,28.7,30.28c-1.22,1.01-2.81,2.88-3.67,4.24
			c-11.29-6.11-21.51-17.62-28.12-30.64v23.59h14.38v4.89h-14.38v13.95h-5.03v-13.95h-14.6v-4.89h14.6v-23.45
			c-6.83,13.02-17.12,24.31-27.98,30.64c-0.86-1.22-2.37-3.02-3.45-3.96c11.29-5.83,22.08-17.91,28.34-30.71h-25.96v-4.89h29.06
			v-15.54l6.47,0.36c-0.07,0.5-0.43,0.86-1.44,1.01v14.17h29.34V194.28z"/>
		<path d="M244.81,314.13c6.47-5.9,16.54-17.77,20.57-30.28c0.14-1.01,0.22-1.58-3.38-4.53c-1.8-1.22-1.58-1.94-0.22-1.94
			c0.65,0,1.65,0.22,2.81,0.58c5.39,2.45,6.9,3.6,6.9,4.82c0,0.79-0.86,2.3-5.54,11c1.58,2.8,4.46,5.18,7.7,7.91
			c2.95,2.37,3.81,1.58,6.26,6.62c0.72,1.44,1.01,2.66,1.01,3.52c0,1.37-0.65,2.16-1.44,2.16c-0.5,0-1.01-0.29-1.51-0.86
			c-2.37-2.95-7.48-10-13.31-17.55c-7.7,11.51-19.42,20.43-20.79,20.43c-0.22,0-0.29-0.07-0.29-0.22
			C243.58,315.42,243.94,314.92,244.81,314.13z M292.71,274.78c-0.07-1.22-3.96-2.95-6.98-4.32c-0.79-0.29-1.29-0.65-1.29-0.94
			c0-0.43,0.86-0.79,3.02-0.86c3.09,0.5,5.97,1.22,8.27,1.94c1.51,0.58,1.87,1.08,1.87,1.8c0,0.58-0.22,1.22-0.22,2.3v26.18h3.6
			c3.38-0.5,2.23-1.87,6.83-1.87c1.37,0,4.39,0,4.39,2.23c0,1.01-0.86,1.87-2.45,1.87h-12.44l-0.07,20.86
			c-0.07,4.67-0.58,7.62-1.8,10.64c-0.58,0.86-1.15,1.29-1.65,1.29c-0.65,0-1.08-0.94-1.08-3.31V274.78z"/>
		<path d="M364.63,275.07c-0.07-0.65-2.01-2.09-6.19-3.88c-1.08-0.36-1.65-0.79-1.65-1.15c0-0.43,0.86-0.72,2.59-0.79
			c3.38,0.36,5.97,1.15,8.27,1.87c1.51,0.58,1.87,1.08,1.87,1.73c0,0.5-0.29,1.15-0.29,2.01l-0.07,19.92c1.01-0.07,1.73,0,2.81-0.14
			c3.24-0.72,1.94-2.01,6.98-2.01c1.65,0,4.46,0,4.46,1.94c0,0.86-0.79,1.73-2.01,1.8l-12.3,0.29c-0.07,6.04-0.5,9.13-1.22,11.15
			c-0.65,1.44-1.51,2.52-2.16,2.52c-0.58,0-1.08-0.86-1.08-3.24v-10.14c-11,5.11-28.77,10.21-35.89,10.5
			c-1.29-0.07-3.74-2.81-3.81-5.39l-0.22-8.92c-0.14-1.44-1.44-1.87-3.45-2.45c-0.65-0.07-1.01-0.29-1.01-0.58
			c0-0.36,0.65-0.79,2.16-1.01c3.38,0,6.26,0.22,7.84,0.65c3.09,0,6.83-0.22,11.58-0.36c2.52-0.29,2.95-0.58,4.1-1.01
			c0.22-2.23,0.43-5.68,0.5-9.93c-5.54,0.43-8.99,0.58-14.96,1.01c-1.58,0.43-2.01,1.08-3.09,1.08c-1.15,0-7.12-2.23-7.12-3.45
			c0-0.22,0.22-0.36,0.79-0.36c0.22,0,0.5,0,0.86,0.07c2.66,0.36,5.61,0.5,8.7,0.5c3.74,0,7.7-0.22,11.8-0.43
			c2.45-0.29,1.37-0.72,4.53-0.72c2.52,0,4.24,0.14,4.24,0.86c0,0.58-0.94,1.37-1.22,2.37c-0.79,2.45-1.73,6.83-2.16,8.99
			c2.01,0.29,2.95,0.94,2.95,1.51c0,0.5-0.65,0.94-1.73,1.01c-6.11,0.36-16.18,0.72-19.2,0.86c-1.08,0.58-1.29,0.07-1.44,1.44
			c0,1.37,0,4.17-0.14,8.56c0.14,1.08,0.5,1.58,1.73,1.58c3.24,0,17.12-1.94,33.66-7.84V275.07z M353.92,310.39
			c0-0.58-0.29-1.29-0.86-1.87c-0.43-0.29-0.65-0.65-0.65-0.93c0-0.29,0.29-0.5,0.86-0.5c1.37,0,4.75,1.44,4.75,2.45
			c0,0.65-0.79,1.22-1.08,2.09c7.98,1.44,11.72,6.55,11.72,11.51c0,5.54-4.89,11.65-14.17,11.65c-8.92,0-13.81-5.68-13.81-11.72
			c0-5.11,3.96-10.36,12.15-11.51C353.56,311.46,353.92,310.96,353.92,310.39z M344.64,322.76c0,4.32,3.38,8.7,10.07,8.7
			c6.69,0,10.07-4.39,10.07-8.7c0-4.46-3.38-8.85-10.07-8.85C348.02,313.91,344.64,318.3,344.64,322.76z"/>
		<path d="M274.44,368.44v55.67c0,5.18-2.23,5.97-12.23,5.83c-0.29-1.22-0.93-3.24-1.58-4.46c1.8,0,3.52,0.07,4.89,0.07
			c3.96,0,4.32,0,4.32-1.44v-18.27h-14.6c-0.72,8.85-2.59,18.34-7.26,25.32c-0.79-0.79-2.73-2.01-3.88-2.52
			c6.47-9.78,7.05-23.66,7.05-34.24v-25.96H274.44z M255.67,394.41c0,2.23,0,4.6-0.14,7.05h14.31v-12.23h-14.17V394.41z
			 M269.84,372.9h-14.17v11.94h14.17V372.9z M307.24,368.44v56.32c0,6.11-2.66,6.33-13.95,6.33c-0.22-1.29-0.93-3.45-1.58-4.75
			c2.16,0,4.17,0.07,5.83,0.07c4.96,0,5.04,0,5.04-1.65v-18.92h-16.04c-0.94,8.92-3.09,18.41-8.27,25.46
			c-0.79-0.86-2.81-2.16-3.96-2.66c7.41-9.93,8.13-24.17,8.13-34.95v-25.25H307.24z M287.03,393.69c0,2.45-0.07,5.03-0.22,7.77
			h15.75v-12.23h-15.54V393.69z M302.56,372.9h-15.54v11.94h15.54V372.9z"/>
		<path d="M370.1,391.24l3.45,1.51c-0.14,0.36-0.43,0.65-0.72,0.79c-2.88,9.93-7.84,17.62-14.17,23.59
			c6.69,4.53,14.96,7.77,24.81,9.49c-1.15,1.08-2.59,3.16-3.24,4.53c-10.14-2.09-18.63-5.68-25.53-10.79
			c-6.55,5.03-14.24,8.56-22.51,10.86c-0.58-1.29-1.8-3.24-2.8-4.24c7.7-1.94,15.1-5.18,21.36-9.85
			c-5.25-4.75-9.49-10.57-12.73-17.48c-3.6,10.86-9.35,21.07-17.91,28.91c-0.79-1.15-2.66-2.81-3.96-3.52
			c12.59-11,18.77-27.47,21.22-43.59h-19.42v-4.82h20.07c0.43-4.17,0.65-8.34,0.72-12.3l6.62,0.29c-0.14,0.65-0.58,1.15-1.65,1.22
			c-0.07,3.45-0.29,7.05-0.72,10.79h39.13v4.82h-39.77c-0.5,3.31-1.08,6.69-1.94,10h28.77L370.1,391.24z M341.47,396.14
			c3.02,7.05,7.34,13.09,13.09,17.91c5.18-4.75,9.35-10.64,11.94-17.91H341.47z"/>
	</g>
	<g>
		<path d="M484.4,352.26h-8.2c-0.78,0-1.17-0.39-1.17-1.17v-38.8c0-0.78,0.39-1.17,1.17-1.17h8.2c0.78,0,1.17,0.39,1.17,1.17v13.41
			h15.02v-13.41c0-0.78,0.39-1.17,1.17-1.17h8.2c0.78,0,1.17,0.39,1.17,1.17v38.8c0,0.78-0.39,1.17-1.17,1.17h-8.2
			c-0.78,0-1.17-0.39-1.17-1.17v-15.31h-15.02v15.31C485.57,351.87,485.18,352.26,484.4,352.26z"/>
		<path d="M555.99,351.41c0,0.27-0.09,0.48-0.26,0.63s-0.42,0.22-0.73,0.22h-8.43c-0.66,0-1.1-0.32-1.32-0.97l-1.87-5.48h-14.76
			l-1.87,5.48c-0.2,0.64-0.63,0.97-1.32,0.97h-8.4c-0.31,0-0.56-0.07-0.75-0.22s-0.28-0.36-0.28-0.63c0-0.16,0.03-0.32,0.09-0.5
			L531.07,312c0.23-0.62,0.68-0.94,1.35-0.94h7.23c0.66,0,1.11,0.31,1.35,0.94l14.91,38.92
			C555.96,351.09,555.99,351.26,555.99,351.41z M540.41,337.04l-3.92-11.54l-0.53-1.87l-0.44,1.87l-3.92,11.54H540.41z"/>
		<path d="M569.93,352.26h-7.91c-0.78,0-1.17-0.39-1.17-1.17v-38.8c0-0.78,0.39-1.17,1.17-1.17h9.05c0.62,0,1.09,0.25,1.41,0.76
			l14.03,22.49v-22.08c0-0.78,0.39-1.17,1.17-1.17h7.91c0.78,0,1.17,0.39,1.17,1.17v38.8c0,0.78-0.39,1.17-1.17,1.17h-8.05
			c-0.61,0-1.07-0.25-1.41-0.76l-15.02-23.78v23.37C571.1,351.87,570.71,352.26,569.93,352.26z"/>
		<path d="M511.69,419.79c0,0.27-0.09,0.48-0.26,0.63s-0.42,0.22-0.73,0.22h-8.43c-0.66,0-1.1-0.32-1.32-0.97l-1.87-5.48h-14.76
			l-1.87,5.48c-0.2,0.64-0.63,0.97-1.32,0.97h-8.4c-0.31,0-0.56-0.07-0.75-0.22s-0.28-0.36-0.28-0.63c0-0.16,0.03-0.32,0.09-0.5
			l14.99-38.92c0.23-0.62,0.68-0.94,1.35-0.94h7.23c0.66,0,1.11,0.31,1.35,0.94l14.91,38.92
			C511.66,419.47,511.69,419.63,511.69,419.79z M496.11,405.41l-3.92-11.54l-0.53-1.87l-0.44,1.87l-3.92,11.54H496.11z"/>
		<path d="M525.63,420.64h-7.91c-0.78,0-1.17-0.39-1.17-1.17v-38.8c0-0.78,0.39-1.17,1.17-1.17h9.05c0.62,0,1.09,0.25,1.41,0.76
			l14.03,22.49v-22.08c0-0.78,0.39-1.17,1.17-1.17h7.91c0.78,0,1.17,0.39,1.17,1.17v38.8c0,0.78-0.39,1.17-1.17,1.17h-8.05
			c-0.61,0-1.07-0.25-1.41-0.76L526.8,396.1v23.37C526.8,420.25,526.41,420.64,525.63,420.64z"/>
		<path d="M585.39,401.61h7.61c0.78,0,1.17,0.39,1.17,1.17v13.21c0,0.6-0.23,1.07-0.7,1.41c-1.84,1.27-3.92,2.25-6.25,2.94
			c-2.33,0.69-4.74,1.04-7.22,1.04c-3.96,0-7.58-0.96-10.85-2.87c-3.27-1.91-5.85-4.5-7.73-7.76c-1.88-3.26-2.83-6.84-2.83-10.75
			s0.94-7.49,2.83-10.75c1.88-3.26,4.46-5.83,7.72-7.72c3.26-1.88,6.88-2.83,10.86-2.83c2.42,0,4.74,0.37,6.96,1.11
			c2.21,0.74,4.22,1.79,6.02,3.13c0.33,0.25,0.5,0.55,0.5,0.88c0,0.25-0.1,0.51-0.29,0.76l-4.74,6.21c-0.27,0.33-0.57,0.5-0.88,0.5
			c-0.25,0-0.51-0.09-0.76-0.26c-1-0.68-2.08-1.23-3.25-1.63c-1.17-0.4-2.35-0.6-3.54-0.6c-1.89,0-3.66,0.49-5.3,1.48
			c-1.64,0.99-2.95,2.34-3.94,4.06c-0.99,1.72-1.48,3.61-1.48,5.68c0,2.09,0.49,4.02,1.48,5.78c0.99,1.77,2.3,3.17,3.95,4.2
			c1.65,1.03,3.41,1.55,5.29,1.55c1.56,0,2.97-0.21,4.22-0.61v-8.17C584.22,402,584.61,401.61,585.39,401.61z"/>
		<path d="M494.76,489.02h-8.2c-0.78,0-1.17-0.39-1.17-1.17v-14.52l-13.53-24.04c-0.12-0.23-0.18-0.45-0.18-0.64
			c0-0.23,0.09-0.42,0.26-0.56c0.18-0.14,0.42-0.21,0.73-0.21h9.6c0.64,0,1.1,0.29,1.38,0.88l7.09,14.73l6.85-14.73
			c0.25-0.58,0.71-0.88,1.38-0.88h9.66c0.31,0,0.56,0.07,0.73,0.21s0.26,0.32,0.26,0.56c0,0.2-0.06,0.41-0.18,0.64l-13.53,23.98
			v14.58C495.93,488.63,495.54,489.02,494.76,489.02z"/>
		<path d="M519.81,486.88c-3.27-1.91-5.85-4.5-7.73-7.76c-1.88-3.26-2.83-6.84-2.83-10.75s0.94-7.49,2.83-10.75
			c1.88-3.26,4.46-5.83,7.72-7.72c3.26-1.88,6.88-2.83,10.86-2.83c3.96,0,7.57,0.95,10.83,2.84c3.26,1.89,5.83,4.47,7.72,7.72
			s2.83,6.83,2.83,10.73c0,3.88-0.94,7.46-2.83,10.73s-4.46,5.86-7.73,7.77c-3.27,1.91-6.88,2.87-10.82,2.87
			C526.7,489.75,523.08,488.79,519.81,486.88z M535.96,478.17c1.64-0.99,2.95-2.34,3.92-4.07c0.98-1.73,1.46-3.63,1.46-5.7
			s-0.49-3.96-1.48-5.68c-0.99-1.72-2.3-3.07-3.94-4.06c-1.64-0.99-3.4-1.48-5.27-1.48c-1.89,0-3.66,0.49-5.3,1.48
			c-1.64,0.99-2.95,2.34-3.94,4.06c-0.99,1.72-1.48,3.61-1.48,5.68s0.49,3.96,1.48,5.68c0.99,1.72,2.3,3.07,3.95,4.07
			c1.65,1,3.41,1.49,5.29,1.49C532.56,479.65,534.32,479.15,535.96,478.17z"/>
		<path d="M565.55,487.71c-2.66-1.45-4.7-3.47-6.09-6.05c-1.4-2.58-2.09-5.5-2.09-8.79v-23.84c0-0.78,0.39-1.17,1.17-1.17h8.2
			c0.78,0,1.17,0.39,1.17,1.17v22.34c0,1.76,0.29,3.29,0.86,4.6c0.58,1.31,1.41,2.32,2.49,3.03c1.08,0.71,2.35,1.07,3.79,1.07
			c1.46,0,2.74-0.36,3.84-1.07c1.09-0.71,1.93-1.72,2.52-3.03c0.59-1.31,0.88-2.84,0.88-4.6v-22.34c0-0.78,0.39-1.17,1.17-1.17h8.2
			c0.78,0,1.17,0.39,1.17,1.17v23.84c0,3.28-0.7,6.21-2.11,8.79c-1.41,2.58-3.45,4.59-6.12,6.05c-2.67,1.45-5.86,2.18-9.55,2.18
			C571.38,489.89,568.22,489.17,565.55,487.71z"/>
	</g>
</g>
</svg>
